<svg xmlns="http://www.w3.org/2000/svg" viewBox="0 0 500 372.61"><defs><style>.cls-1{fill:#ebebeb;}.cls-2{fill:#fafafa;}.cls-3,.cls-5{fill:#f0f0f0;}.cls-4{fill:#e0e0e0;}.cls-5{stroke:#e0e0e0;stroke-width:2px;}.cls-15,.cls-32,.cls-5{stroke-linecap:round;stroke-linejoin:round;}.cls-6{fill:#f5f5f5;}.cls-7{fill:#263238;}.cls-20,.cls-24,.cls-8{opacity:0.6;}.cls-10,.cls-13,.cls-20,.cls-21,.cls-22,.cls-23,.cls-30,.cls-31,.cls-8{isolation:isolate;}.cls-13,.cls-18,.cls-19,.cls-20,.cls-21,.cls-22,.cls-23,.cls-24,.cls-26,.cls-27,.cls-28,.cls-30,.cls-9{fill:#fff;}.cls-10,.cls-21,.cls-28{opacity:0.2;}.cls-11{fill:#407bff;}.cls-12{fill:#ebb376;}.cls-13{opacity:0.4;}.cls-14{fill:#d58745;}.cls-15,.cls-17,.cls-32{fill:none;}.cls-15{stroke:#2e353a;stroke-width:0.72px;}.cls-16{fill:#de5753;}.cls-17,.cls-32{stroke:#263238;stroke-width:0.5px;}.cls-17{stroke-miterlimit:10;}.cls-18,.cls-23{opacity:0.1;}.cls-19,.cls-30,.cls-31{opacity:0.3;}.cls-25{fill:#2e353a;}.cls-26{opacity:0.8;}.cls-27{opacity:0.9;}.cls-29{fill:#e4897b;}</style></defs><title>LOSRSHY</title><g id="Background_Complete" data-name="Background Complete"><rect class="cls-1" y="327.45" width="500" height="0.25"/><rect class="cls-1" x="416.78" y="343.54" width="33.12" height="0.25"/><rect class="cls-1" x="322.53" y="346.26" width="8.69" height="0.25"/><rect class="cls-1" x="396.59" y="334.26" width="19.19" height="0.25"/><rect class="cls-1" x="52.46" y="335.94" width="43.19" height="0.25"/><rect class="cls-1" x="104.56" y="335.94" width="6.33" height="0.25"/><rect class="cls-1" x="131.47" y="340.16" width="93.68" height="0.25"/><path class="cls-1" d="M237,337.8H43.92a5.71,5.71,0,0,1-5.71-5.71V60.66A5.71,5.71,0,0,1,43.92,55H237a5.71,5.71,0,0,1,5.71,5.71V332.09A5.71,5.71,0,0,1,237,337.8ZM43.92,55.2a5.46,5.46,0,0,0-5.46,5.46V332.09a5.46,5.46,0,0,0,5.46,5.46H237a5.46,5.46,0,0,0,5.46-5.46V60.66A5.46,5.46,0,0,0,237,55.2Z" transform="translate(0 -54.95)"/><path class="cls-1" d="M453.31,337.8H260.21a5.71,5.71,0,0,1-5.71-5.71V60.66A5.71,5.71,0,0,1,260.21,55h193.1A5.71,5.71,0,0,1,459,60.66V332.09A5.71,5.71,0,0,1,453.31,337.8ZM260.21,55.2a5.46,5.46,0,0,0-5.46,5.46V332.09a5.46,5.46,0,0,0,5.46,5.46h193.1a5.46,5.46,0,0,0,5.46-5.46V60.66a5.46,5.46,0,0,0-5.46-5.46Z" transform="translate(0 -54.95)"/><rect class="cls-1" x="254.39" y="65.76" width="169.52" height="189.92"/><rect class="cls-2" x="254.39" y="68.82" width="166.19" height="183.49"/><polygon class="cls-3" points="414.44 166.22 414.44 153.32 410.75 153.32 410.75 144.73 405.84 144.73 405.84 131.84 404.62 131.84 404.62 144.73 399.7 144.73 399.7 153.32 396.02 153.32 396.02 166.22 389.27 166.22 389.27 169.9 386.2 169.9 386.2 184.02 385.58 184.02 385.58 163.76 383.74 163.76 383.74 176.65 381.9 176.65 381.9 145.96 380.67 145.96 380.67 158.85 375.76 158.85 375.76 154.55 373.92 154.55 373.92 136.75 370.24 136.75 370.24 118.94 369.01 118.94 369.01 121.4 343.84 121.4 343.84 114.03 339.54 114.03 339.54 85.79 337.7 85.79 337.7 114.03 331.56 114.03 331.56 121.4 329.11 121.4 329.11 158.23 316.21 158.23 316.21 147.18 320.51 147.18 320.51 145.34 316.21 145.34 316.21 142.27 303.94 142.27 303.94 114.03 300.87 114.03 300.87 109.73 286.13 109.73 286.13 114.03 284.29 114.03 284.29 153.32 277.54 153.32 277.54 171.13 273.85 171.13 273.85 157.01 270.78 157.01 270.78 153.32 264.03 153.32 264.03 140.43 260.35 140.43 260.35 131.84 256.05 131.84 256.05 118.94 254.39 118.94 254.39 252.31 420.58 252.31 420.58 166.22 414.44 166.22"/><rect class="cls-2" x="353.24" y="123.32" width="1.74" height="1.74"/><rect class="cls-2" x="353.24" y="126.24" width="1.74" height="1.74"/><rect class="cls-2" x="353.24" y="137.9" width="1.74" height="1.74"/><rect class="cls-2" x="353.24" y="140.82" width="1.74" height="1.74"/><rect class="cls-2" x="353.24" y="143.74" width="1.74" height="1.74"/><rect class="cls-2" x="353.24" y="152.49" width="1.74" height="1.74"/><rect class="cls-2" x="353.24" y="155.4" width="1.74" height="1.74"/><rect class="cls-2" x="350.48" y="134.99" width="1.74" height="1.74"/><rect class="cls-2" x="350.48" y="137.9" width="1.74" height="1.74"/><rect class="cls-2" x="350.48" y="140.82" width="1.74" height="1.74"/><rect class="cls-2" x="350.48" y="143.74" width="1.74" height="1.74"/><rect class="cls-2" x="350.48" y="146.65" width="1.74" height="1.74"/><rect class="cls-2" x="350.48" y="152.49" width="1.74" height="1.74"/><rect class="cls-2" x="350.48" y="155.4" width="1.74" height="1.74"/><rect class="cls-2" x="347.71" y="123.32" width="1.74" height="1.74"/><rect class="cls-2" x="347.71" y="126.24" width="1.74" height="1.74"/><rect class="cls-2" x="347.71" y="129.16" width="1.74" height="1.74"/><rect class="cls-2" x="347.71" y="132.07" width="1.74" height="1.74"/><rect class="cls-2" x="347.71" y="134.99" width="1.74" height="1.74"/><rect class="cls-2" x="347.71" y="137.9" width="1.74" height="1.74"/><rect class="cls-2" x="347.71" y="140.82" width="1.74" height="1.74"/><rect class="cls-2" x="347.71" y="143.74" width="1.74" height="1.74"/><rect class="cls-2" x="347.71" y="146.65" width="1.74" height="1.74"/><rect class="cls-2" x="347.71" y="149.57" width="1.74" height="1.74"/><rect class="cls-2" x="347.71" y="155.4" width="1.74" height="1.74"/><rect class="cls-2" x="344.95" y="123.32" width="1.74" height="1.74"/><rect class="cls-2" x="344.95" y="126.24" width="1.74" height="1.74"/><rect class="cls-2" x="344.95" y="129.16" width="1.74" height="1.74"/><rect class="cls-2" x="344.95" y="132.07" width="1.74" height="1.74"/><rect class="cls-2" x="344.95" y="134.99" width="1.74" height="1.74"/><rect class="cls-2" x="344.95" y="137.9" width="1.74" height="1.74"/><rect class="cls-2" x="344.95" y="140.82" width="1.74" height="1.74"/><rect class="cls-2" x="344.95" y="167.07" width="1.74" height="1.74"/><rect class="cls-2" x="342.19" y="123.32" width="1.74" height="1.74"/><rect class="cls-2" x="342.19" y="126.24" width="1.74" height="1.74"/><rect class="cls-2" x="342.19" y="129.16" width="1.74" height="1.74"/><rect class="cls-2" x="342.19" y="132.07" width="1.74" height="1.74"/><rect class="cls-2" x="342.19" y="134.99" width="1.74" height="1.74"/><rect class="cls-2" x="342.19" y="137.9" width="1.74" height="1.74"/><rect class="cls-2" x="342.19" y="140.82" width="1.74" height="1.74"/><rect class="cls-2" x="342.19" y="143.74" width="1.74" height="1.74"/><rect class="cls-2" x="342.19" y="161.23" width="1.74" height="1.74"/><rect class="cls-2" x="342.19" y="164.15" width="1.74" height="1.74"/><rect class="cls-2" x="342.19" y="167.07" width="1.74" height="1.74"/><rect class="cls-2" x="342.19" y="169.98" width="1.74" height="1.74"/><rect class="cls-2" x="342.19" y="181.65" width="1.74" height="1.74"/><rect class="cls-2" x="339.43" y="123.32" width="1.74" height="1.74"/><rect class="cls-2" x="339.43" y="126.24" width="1.74" height="1.74"/><rect class="cls-2" x="339.43" y="129.16" width="1.74" height="1.74"/><rect class="cls-2" x="339.43" y="132.07" width="1.74" height="1.74"/><rect class="cls-2" x="339.43" y="134.99" width="1.74" height="1.74"/><rect class="cls-2" x="339.43" y="137.9" width="1.74" height="1.74"/><rect class="cls-2" x="339.43" y="140.82" width="1.74" height="1.74"/><rect class="cls-2" x="339.43" y="143.74" width="1.74" height="1.74"/><rect class="cls-2" x="339.43" y="146.65" width="1.74" height="1.74"/><rect class="cls-2" x="339.43" y="149.57" width="1.74" height="1.74"/><rect class="cls-2" x="339.43" y="158.32" width="1.74" height="1.74"/><rect class="cls-2" x="339.43" y="161.23" width="1.74" height="1.74"/><rect class="cls-2" x="339.43" y="164.15" width="1.74" height="1.74"/><rect class="cls-2" x="339.43" y="167.07" width="1.74" height="1.74"/><rect class="cls-2" x="339.43" y="169.98" width="1.74" height="1.74"/><rect class="cls-2" x="339.43" y="181.65" width="1.74" height="1.74"/><rect class="cls-2" x="336.66" y="123.32" width="1.74" height="1.74"/><rect class="cls-2" x="336.66" y="126.24" width="1.74" height="1.74"/><rect class="cls-2" x="336.66" y="129.16" width="1.74" height="1.74"/><rect class="cls-2" x="336.66" y="132.07" width="1.74" height="1.74"/><rect class="cls-2" x="336.66" y="134.99" width="1.74" height="1.74"/><rect class="cls-2" x="336.66" y="137.9" width="1.74" height="1.74"/><rect class="cls-2" x="336.66" y="140.82" width="1.74" height="1.74"/><rect class="cls-2" x="336.66" y="143.74" width="1.74" height="1.74"/><rect class="cls-2" x="336.66" y="146.65" width="1.74" height="1.74"/><rect class="cls-2" x="336.66" y="149.57" width="1.74" height="1.74"/><rect class="cls-2" x="336.66" y="152.49" width="1.74" height="1.74"/><rect class="cls-2" x="336.66" y="155.4" width="1.74" height="1.74"/><rect class="cls-2" x="336.66" y="158.32" width="1.74" height="1.74"/><rect class="cls-2" x="336.66" y="161.23" width="1.74" height="1.74"/><rect class="cls-2" x="336.66" y="164.15" width="1.74" height="1.74"/><rect class="cls-2" x="336.66" y="167.07" width="1.74" height="1.74"/><rect class="cls-2" x="336.66" y="169.98" width="1.74" height="1.74"/><rect class="cls-2" x="336.66" y="172.9" width="1.74" height="1.74"/><rect class="cls-2" x="333.9" y="123.32" width="1.74" height="1.74"/><rect class="cls-2" x="333.9" y="126.24" width="1.74" height="1.74"/><rect class="cls-2" x="333.9" y="129.16" width="1.74" height="1.74"/><rect class="cls-2" x="333.9" y="132.07" width="1.74" height="1.74"/><rect class="cls-2" x="333.9" y="134.99" width="1.74" height="1.74"/><rect class="cls-2" x="333.9" y="137.9" width="1.74" height="1.74"/><rect class="cls-2" x="333.9" y="140.82" width="1.74" height="1.74"/><rect class="cls-2" x="333.9" y="143.74" width="1.74" height="1.74"/><rect class="cls-2" x="333.9" y="146.65" width="1.74" height="1.74"/><rect class="cls-2" x="333.9" y="149.57" width="1.74" height="1.74"/><rect class="cls-2" x="333.9" y="158.32" width="1.74" height="1.74"/><rect class="cls-2" x="333.9" y="161.23" width="1.74" height="1.74"/><rect class="cls-2" x="333.9" y="164.15" width="1.74" height="1.74"/><rect class="cls-2" x="333.9" y="167.07" width="1.74" height="1.74"/><rect class="cls-2" x="331.14" y="123.32" width="1.74" height="1.74"/><rect class="cls-2" x="331.14" y="126.24" width="1.74" height="1.74"/><rect class="cls-2" x="331.14" y="129.16" width="1.74" height="1.74"/><rect class="cls-2" x="331.14" y="132.07" width="1.74" height="1.74"/><rect class="cls-2" x="331.14" y="134.99" width="1.74" height="1.74"/><rect class="cls-2" x="331.14" y="137.9" width="1.74" height="1.74"/><rect class="cls-2" x="331.14" y="140.82" width="1.74" height="1.74"/><rect class="cls-2" x="331.14" y="143.74" width="1.74" height="1.74"/><rect class="cls-2" x="331.14" y="146.65" width="1.74" height="1.74"/><rect class="cls-2" x="331.14" y="149.57" width="1.74" height="1.74"/><rect class="cls-2" x="331.14" y="158.32" width="1.74" height="1.74"/><rect class="cls-2" x="331.14" y="161.23" width="1.74" height="1.74"/><rect class="cls-2" x="331.14" y="164.15" width="1.74" height="1.74"/><rect class="cls-2" x="300.03" y="115.75" width="1.74" height="1.74"/><rect class="cls-2" x="300.03" y="118.67" width="1.74" height="1.74"/><rect class="cls-2" x="300.03" y="121.59" width="1.74" height="1.74"/><rect class="cls-2" x="300.03" y="124.5" width="1.74" height="1.74"/><rect class="cls-2" x="300.03" y="127.42" width="1.74" height="1.74"/><rect class="cls-2" x="300.03" y="130.33" width="1.74" height="1.74"/><rect class="cls-2" x="300.03" y="133.25" width="1.74" height="1.74"/><rect class="cls-2" x="300.03" y="136.17" width="1.74" height="1.74"/><rect class="cls-2" x="300.03" y="144.91" width="1.74" height="1.74"/><rect class="cls-2" x="300.03" y="147.83" width="1.74" height="1.74"/><rect class="cls-2" x="297.27" y="115.75" width="1.74" height="1.74"/><rect class="cls-2" x="297.27" y="118.67" width="1.74" height="1.74"/><rect class="cls-2" x="297.27" y="121.59" width="1.74" height="1.74"/><rect class="cls-2" x="297.27" y="124.5" width="1.74" height="1.74"/><rect class="cls-2" x="297.27" y="127.42" width="1.74" height="1.74"/><rect class="cls-2" x="297.27" y="130.33" width="1.74" height="1.74"/><rect class="cls-2" x="297.27" y="133.25" width="1.74" height="1.74"/><rect class="cls-2" x="297.27" y="136.17" width="1.74" height="1.74"/><rect class="cls-2" x="297.27" y="147.83" width="1.74" height="1.74"/><rect class="cls-2" x="294.51" y="115.75" width="1.74" height="1.74"/><rect class="cls-2" x="294.51" y="118.67" width="1.74" height="1.74"/><rect class="cls-2" x="294.51" y="121.59" width="1.74" height="1.74"/><rect class="cls-2" x="294.51" y="124.5" width="1.74" height="1.74"/><rect class="cls-2" x="294.51" y="127.42" width="1.74" height="1.74"/><rect class="cls-2" x="294.51" y="130.33" width="1.74" height="1.74"/><rect class="cls-2" x="294.51" y="133.25" width="1.74" height="1.74"/><rect class="cls-2" x="294.51" y="136.17" width="1.74" height="1.74"/><rect class="cls-2" x="291.75" y="115.75" width="1.74" height="1.74"/><rect class="cls-2" x="291.75" y="118.67" width="1.74" height="1.74"/><rect class="cls-2" x="291.75" y="121.59" width="1.74" height="1.74"/><rect class="cls-2" x="291.75" y="124.5" width="1.74" height="1.74"/><rect class="cls-2" x="291.75" y="127.42" width="1.74" height="1.74"/><rect class="cls-2" x="291.75" y="130.33" width="1.74" height="1.74"/><rect class="cls-2" x="291.75" y="136.17" width="1.74" height="1.74"/><rect class="cls-2" x="291.75" y="139.08" width="1.74" height="1.74"/><rect class="cls-2" x="291.75" y="147.83" width="1.74" height="1.74"/><rect class="cls-2" x="291.75" y="150.75" width="1.74" height="1.74"/><rect class="cls-2" x="291.75" y="153.66" width="1.74" height="1.74"/><rect class="cls-2" x="291.75" y="156.58" width="1.74" height="1.74"/><rect class="cls-2" x="291.75" y="159.49" width="1.74" height="1.74"/><rect class="cls-2" x="291.75" y="162.41" width="1.74" height="1.74"/><rect class="cls-2" x="291.75" y="165.33" width="1.74" height="1.74"/><rect class="cls-2" x="288.98" y="115.75" width="1.74" height="1.74"/><rect class="cls-2" x="288.98" y="118.67" width="1.74" height="1.74"/><rect class="cls-2" x="288.98" y="121.59" width="1.74" height="1.74"/><rect class="cls-2" x="288.98" y="124.5" width="1.74" height="1.74"/><rect class="cls-2" x="288.98" y="127.42" width="1.74" height="1.74"/><rect class="cls-2" x="288.98" y="130.33" width="1.74" height="1.74"/><rect class="cls-2" x="288.98" y="139.08" width="1.74" height="1.74"/><rect class="cls-2" x="288.98" y="142" width="1.74" height="1.74"/><rect class="cls-2" x="288.98" y="144.91" width="1.74" height="1.74"/><rect class="cls-2" x="288.98" y="147.83" width="1.74" height="1.74"/><rect class="cls-2" x="288.98" y="150.75" width="1.74" height="1.74"/><rect class="cls-2" x="288.98" y="153.66" width="1.74" height="1.74"/><rect class="cls-2" x="288.98" y="156.58" width="1.74" height="1.74"/><rect class="cls-2" x="288.98" y="159.49" width="1.74" height="1.74"/><rect class="cls-2" x="288.98" y="162.41" width="1.74" height="1.74"/><rect class="cls-2" x="288.98" y="165.33" width="1.74" height="1.74"/><rect class="cls-2" x="288.98" y="168.24" width="1.74" height="1.74"/><rect class="cls-2" x="288.98" y="174.07" width="1.74" height="1.74"/><rect class="cls-2" x="286.22" y="115.75" width="1.74" height="1.74"/><rect class="cls-2" x="286.22" y="118.67" width="1.74" height="1.74"/><rect class="cls-2" x="286.22" y="121.59" width="1.74" height="1.74"/><rect class="cls-2" x="286.22" y="124.5" width="1.74" height="1.74"/><rect class="cls-2" x="286.22" y="127.42" width="1.74" height="1.74"/><rect class="cls-2" x="286.22" y="130.33" width="1.74" height="1.74"/><rect class="cls-2" x="286.22" y="139.08" width="1.74" height="1.74"/><rect class="cls-2" x="286.22" y="142" width="1.74" height="1.74"/><rect class="cls-2" x="286.22" y="144.91" width="1.74" height="1.74"/><rect class="cls-2" x="286.22" y="147.83" width="1.74" height="1.74"/><rect class="cls-2" x="286.22" y="156.58" width="1.74" height="1.74"/><rect class="cls-2" x="286.22" y="159.49" width="1.74" height="1.74"/><rect class="cls-2" x="286.22" y="162.41" width="1.74" height="1.74"/><rect class="cls-2" x="286.22" y="165.33" width="1.74" height="1.74"/><rect class="cls-2" x="286.22" y="168.24" width="1.74" height="1.74"/><rect class="cls-2" x="286.22" y="174.07" width="1.74" height="1.74"/><rect class="cls-2" x="286.22" y="176.99" width="1.74" height="1.74"/><rect class="cls-2" x="261.15" y="142.87" width="1.74" height="1.74"/><rect class="cls-2" x="261.15" y="145.78" width="1.74" height="1.74"/><rect class="cls-2" x="261.15" y="148.7" width="1.74" height="1.74"/><rect class="cls-2" x="261.15" y="151.62" width="1.74" height="1.74"/><rect class="cls-2" x="261.15" y="154.53" width="1.74" height="1.74"/><rect class="cls-2" x="261.15" y="157.45" width="1.74" height="1.74"/><rect class="cls-2" x="261.15" y="160.36" width="1.74" height="1.74"/><rect class="cls-2" x="261.15" y="169.11" width="1.74" height="1.74"/><rect class="cls-2" x="261.15" y="172.03" width="1.74" height="1.74"/><rect class="cls-2" x="261.15" y="174.94" width="1.74" height="1.74"/><rect class="cls-2" x="258.39" y="142.87" width="1.74" height="1.74"/><rect class="cls-2" x="258.39" y="145.78" width="1.74" height="1.74"/><rect class="cls-2" x="258.39" y="148.7" width="1.74" height="1.74"/><rect class="cls-2" x="258.39" y="151.62" width="1.74" height="1.74"/><rect class="cls-2" x="258.39" y="154.53" width="1.74" height="1.74"/><rect class="cls-2" x="258.39" y="157.45" width="1.74" height="1.74"/><rect class="cls-2" x="258.39" y="160.36" width="1.74" height="1.74"/><rect class="cls-2" x="254.87" y="142.87" width="2.5" height="1.74"/><rect class="cls-2" x="254.87" y="145.78" width="2.5" height="1.74"/><rect class="cls-2" x="254.87" y="148.7" width="2.5" height="1.74"/><rect class="cls-2" x="254.87" y="151.62" width="2.5" height="1.74"/><rect class="cls-2" x="254.87" y="154.53" width="2.5" height="1.74"/><rect class="cls-2" x="254.87" y="157.45" width="2.5" height="1.74"/><rect class="cls-2" x="254.87" y="160.36" width="2.5" height="1.74"/><rect class="cls-2" x="407.57" y="146.65" width="1.74" height="1.74"/><rect class="cls-2" x="407.57" y="149.57" width="1.74" height="1.74"/><rect class="cls-2" x="407.57" y="152.49" width="1.74" height="1.74"/><rect class="cls-2" x="407.57" y="155.4" width="1.74" height="1.74"/><rect class="cls-2" x="407.57" y="158.32" width="1.74" height="1.74"/><rect class="cls-2" x="407.57" y="161.23" width="1.74" height="1.74"/><rect class="cls-2" x="407.57" y="164.15" width="1.74" height="1.74"/><rect class="cls-2" x="407.57" y="167.07" width="1.74" height="1.74"/><rect class="cls-2" x="407.57" y="169.98" width="1.74" height="1.74"/><rect class="cls-2" x="407.57" y="172.9" width="1.74" height="1.74"/><rect class="cls-2" x="407.57" y="175.81" width="1.74" height="1.74"/><rect class="cls-2" x="407.57" y="178.73" width="1.74" height="1.74"/><rect class="cls-2" x="407.57" y="181.65" width="1.74" height="1.74"/><rect class="cls-2" x="407.57" y="184.56" width="1.74" height="1.74"/><rect class="cls-2" x="407.57" y="187.48" width="1.74" height="1.74"/><rect class="cls-2" x="407.57" y="190.39" width="1.74" height="1.74"/><rect class="cls-2" x="407.57" y="193.31" width="1.74" height="1.74"/><rect class="cls-2" x="407.57" y="196.23" width="1.74" height="1.74"/><rect class="cls-2" x="407.57" y="199.14" width="1.74" height="1.74"/><rect class="cls-2" x="407.57" y="202.06" width="1.74" height="1.74"/><rect class="cls-2" x="404.81" y="146.65" width="1.74" height="1.74"/><rect class="cls-2" x="404.81" y="149.57" width="1.74" height="1.74"/><rect class="cls-2" x="404.81" y="152.49" width="1.74" height="1.74"/><rect class="cls-2" x="404.81" y="155.4" width="1.74" height="1.74"/><rect class="cls-2" x="404.81" y="158.32" width="1.74" height="1.74"/><rect class="cls-2" x="404.81" y="161.23" width="1.74" height="1.74"/><rect class="cls-2" x="404.81" y="164.15" width="1.74" height="1.74"/><rect class="cls-2" x="404.81" y="167.07" width="1.74" height="1.74"/><rect class="cls-2" x="404.81" y="169.98" width="1.74" height="1.74"/><rect class="cls-2" x="404.81" y="172.9" width="1.74" height="1.74"/><rect class="cls-2" x="404.81" y="175.81" width="1.74" height="1.74"/><rect class="cls-2" x="404.81" y="178.73" width="1.74" height="1.74"/><rect class="cls-2" x="404.81" y="181.65" width="1.74" height="1.74"/><rect class="cls-2" x="404.81" y="184.56" width="1.74" height="1.74"/><rect class="cls-2" x="404.81" y="187.48" width="1.74" height="1.74"/><rect class="cls-2" x="404.81" y="190.39" width="1.74" height="1.74"/><rect class="cls-2" x="404.81" y="193.31" width="1.74" height="1.74"/><rect class="cls-2" x="404.81" y="196.23" width="1.74" height="1.74"/><rect class="cls-2" x="402.04" y="146.65" width="1.74" height="1.74"/><rect class="cls-2" x="402.04" y="149.57" width="1.74" height="1.74"/><rect class="cls-2" x="402.04" y="152.49" width="1.74" height="1.74"/><rect class="cls-2" x="402.04" y="155.4" width="1.74" height="1.74"/><rect class="cls-2" x="402.04" y="158.32" width="1.74" height="1.74"/><rect class="cls-2" x="402.04" y="161.23" width="1.74" height="1.74"/><rect class="cls-2" x="402.04" y="164.15" width="1.74" height="1.74"/><rect class="cls-2" x="402.04" y="167.07" width="1.74" height="1.74"/><rect class="cls-2" x="402.04" y="169.98" width="1.74" height="1.74"/><rect class="cls-2" x="402.04" y="172.9" width="1.74" height="1.74"/><rect class="cls-2" x="402.04" y="175.81" width="1.74" height="1.74"/><rect class="cls-2" x="402.04" y="178.73" width="1.74" height="1.74"/><rect class="cls-2" x="402.04" y="181.65" width="1.74" height="1.74"/><rect class="cls-2" x="402.04" y="184.56" width="1.74" height="1.74"/><rect class="cls-2" x="402.04" y="187.48" width="1.74" height="1.74"/><rect class="cls-2" x="402.04" y="190.39" width="1.74" height="1.74"/><rect class="cls-2" x="402.04" y="193.31" width="1.74" height="1.74"/><rect class="cls-2" x="402.04" y="196.23" width="1.74" height="1.74"/><rect class="cls-2" x="417.9" y="167.94" width="1.74" height="1.74"/><rect class="cls-2" x="417.9" y="170.85" width="1.74" height="1.74"/><rect class="cls-2" x="417.9" y="173.77" width="1.74" height="1.74"/><rect class="cls-2" x="417.9" y="176.68" width="1.74" height="1.74"/><rect class="cls-2" x="417.9" y="179.6" width="1.74" height="1.74"/><rect class="cls-2" x="417.9" y="182.52" width="1.74" height="1.74"/><rect class="cls-2" x="417.9" y="185.43" width="1.74" height="1.74"/><rect class="cls-2" x="417.9" y="188.35" width="1.74" height="1.74"/><rect class="cls-2" x="417.9" y="191.26" width="1.74" height="1.74"/><rect class="cls-2" x="417.9" y="194.18" width="1.74" height="1.74"/><rect class="cls-2" x="417.9" y="197.1" width="1.74" height="1.74"/><rect class="cls-2" x="417.9" y="200.01" width="1.74" height="1.74"/><rect class="cls-2" x="417.9" y="202.93" width="1.74" height="1.74"/><rect class="cls-2" x="415.14" y="167.94" width="1.74" height="1.74"/><rect class="cls-2" x="415.14" y="170.85" width="1.74" height="1.74"/><rect class="cls-2" x="415.14" y="173.77" width="1.74" height="1.74"/><rect class="cls-2" x="415.14" y="176.68" width="1.74" height="1.74"/><rect class="cls-2" x="415.14" y="179.6" width="1.74" height="1.74"/><rect class="cls-2" x="415.14" y="182.52" width="1.74" height="1.74"/><rect class="cls-2" x="415.14" y="185.43" width="1.74" height="1.74"/><rect class="cls-2" x="415.14" y="188.35" width="1.74" height="1.74"/><rect class="cls-2" x="415.14" y="191.26" width="1.74" height="1.74"/><rect class="cls-2" x="415.14" y="194.18" width="1.74" height="1.74"/><rect class="cls-2" x="415.14" y="197.1" width="1.74" height="1.74"/><rect class="cls-2" x="415.14" y="200.01" width="1.74" height="1.74"/><rect class="cls-2" x="415.14" y="202.93" width="1.74" height="1.74"/><rect class="cls-2" x="412.38" y="167.94" width="1.74" height="1.74"/><rect class="cls-2" x="412.38" y="170.85" width="1.74" height="1.74"/><rect class="cls-2" x="412.38" y="173.77" width="1.74" height="1.74"/><rect class="cls-2" x="412.38" y="176.68" width="1.74" height="1.74"/><rect class="cls-2" x="412.38" y="179.6" width="1.74" height="1.74"/><rect class="cls-2" x="412.38" y="182.52" width="1.74" height="1.74"/><rect class="cls-2" x="412.38" y="185.43" width="1.74" height="1.74"/><rect class="cls-2" x="412.38" y="188.35" width="1.74" height="1.74"/><rect class="cls-2" x="412.38" y="191.26" width="1.74" height="1.74"/><rect class="cls-2" x="412.38" y="194.18" width="1.74" height="1.74"/><rect class="cls-2" x="412.38" y="197.1" width="1.74" height="1.74"/><rect class="cls-2" x="412.38" y="200.01" width="1.74" height="1.74"/><rect class="cls-2" x="412.38" y="202.93" width="1.74" height="1.74"/><rect class="cls-2" x="412.38" y="205.84" width="1.74" height="1.74"/><rect class="cls-2" x="397.03" y="168.8" width="1.74" height="1.74"/><rect class="cls-2" x="397.03" y="171.72" width="1.74" height="1.74"/><rect class="cls-2" x="397.03" y="174.64" width="1.74" height="1.74"/><rect class="cls-2" x="397.03" y="177.55" width="1.74" height="1.74"/><rect class="cls-2" x="397.03" y="180.47" width="1.74" height="1.74"/><rect class="cls-2" x="397.03" y="183.39" width="1.74" height="1.74"/><rect class="cls-2" x="397.03" y="186.3" width="1.74" height="1.74"/><rect class="cls-2" x="397.03" y="189.22" width="1.74" height="1.74"/><rect class="cls-2" x="397.03" y="192.13" width="1.74" height="1.74"/><rect class="cls-2" x="397.03" y="195.05" width="1.74" height="1.74"/><rect class="cls-2" x="397.03" y="203.8" width="1.74" height="1.74"/><rect class="cls-2" x="394.27" y="168.8" width="1.74" height="1.74"/><rect class="cls-2" x="394.27" y="171.72" width="1.74" height="1.74"/><rect class="cls-2" x="394.27" y="174.64" width="1.74" height="1.74"/><rect class="cls-2" x="394.27" y="177.55" width="1.74" height="1.74"/><rect class="cls-2" x="394.27" y="180.47" width="1.74" height="1.74"/><rect class="cls-2" x="394.27" y="183.39" width="1.74" height="1.74"/><rect class="cls-2" x="394.27" y="186.3" width="1.74" height="1.74"/><rect class="cls-2" x="394.27" y="189.22" width="1.74" height="1.74"/><rect class="cls-2" x="394.27" y="192.13" width="1.74" height="1.74"/><rect class="cls-2" x="394.27" y="200.88" width="1.74" height="1.74"/><rect class="cls-2" x="394.27" y="203.8" width="1.74" height="1.74"/><rect class="cls-2" x="391.51" y="168.8" width="1.74" height="1.74"/><rect class="cls-2" x="391.51" y="171.72" width="1.74" height="1.74"/><rect class="cls-2" x="391.51" y="174.64" width="1.74" height="1.74"/><rect class="cls-2" x="391.51" y="177.55" width="1.74" height="1.74"/><rect class="cls-2" x="391.51" y="180.47" width="1.74" height="1.74"/><rect class="cls-2" x="391.51" y="183.39" width="1.74" height="1.74"/><rect class="cls-2" x="391.51" y="186.3" width="1.74" height="1.74"/><rect class="cls-2" x="391.51" y="189.22" width="1.74" height="1.74"/><rect class="cls-2" x="391.51" y="197.97" width="1.74" height="1.74"/><rect class="cls-2" x="391.51" y="200.88" width="1.74" height="1.74"/><rect class="cls-2" x="391.51" y="203.8" width="1.74" height="1.74"/><rect class="cls-2" x="365.82" y="124.5" width="1.74" height="1.74"/><rect class="cls-2" x="365.82" y="127.42" width="1.74" height="1.74"/><rect class="cls-2" x="365.82" y="130.33" width="1.74" height="1.74"/><rect class="cls-2" x="365.82" y="133.25" width="1.74" height="1.74"/><rect class="cls-2" x="365.82" y="136.17" width="1.74" height="1.74"/><rect class="cls-2" x="365.82" y="139.08" width="1.74" height="1.74"/><rect class="cls-2" x="365.82" y="142" width="1.74" height="1.74"/><rect class="cls-2" x="365.82" y="144.91" width="1.74" height="1.74"/><rect class="cls-2" x="365.82" y="147.83" width="1.74" height="1.74"/><rect class="cls-2" x="365.82" y="150.75" width="1.74" height="1.74"/><rect class="cls-2" x="365.82" y="153.66" width="1.74" height="1.74"/><rect class="cls-2" x="365.82" y="156.58" width="1.74" height="1.74"/><rect class="cls-2" x="365.82" y="159.49" width="1.74" height="1.74"/><rect class="cls-2" x="365.82" y="162.41" width="1.74" height="1.74"/><rect class="cls-2" x="365.82" y="165.33" width="1.74" height="1.74"/><rect class="cls-2" x="365.82" y="168.24" width="1.74" height="1.74"/><rect class="cls-2" x="365.82" y="171.16" width="1.74" height="1.74"/><rect class="cls-2" x="365.82" y="176.99" width="1.74" height="1.74"/><rect class="cls-2" x="365.82" y="179.91" width="1.74" height="1.74"/><rect class="cls-2" x="365.82" y="182.82" width="1.74" height="1.74"/><rect class="cls-2" x="365.82" y="185.74" width="1.74" height="1.74"/><rect class="cls-2" x="365.82" y="188.65" width="1.74" height="1.74"/><rect class="cls-2" x="363.06" y="124.5" width="1.74" height="1.74"/><rect class="cls-2" x="363.06" y="127.42" width="1.74" height="1.74"/><rect class="cls-2" x="363.06" y="130.33" width="1.74" height="1.74"/><rect class="cls-2" x="363.06" y="133.25" width="1.74" height="1.74"/><rect class="cls-2" x="363.06" y="136.17" width="1.74" height="1.74"/><rect class="cls-2" x="363.06" y="139.08" width="1.74" height="1.74"/><rect class="cls-2" x="363.06" y="142" width="1.74" height="1.74"/><rect class="cls-2" x="363.06" y="144.91" width="1.74" height="1.74"/><rect class="cls-2" x="363.06" y="147.83" width="1.74" height="1.74"/><rect class="cls-2" x="363.06" y="150.75" width="1.74" height="1.74"/><rect class="cls-2" x="363.06" y="153.66" width="1.74" height="1.74"/><rect class="cls-2" x="363.06" y="156.58" width="1.74" height="1.74"/><rect class="cls-2" x="363.06" y="159.49" width="1.74" height="1.74"/><rect class="cls-2" x="363.06" y="162.41" width="1.74" height="1.74"/><rect class="cls-2" x="363.06" y="165.33" width="1.74" height="1.74"/><rect class="cls-2" x="363.06" y="168.24" width="1.74" height="1.74"/><rect class="cls-2" x="363.06" y="185.74" width="1.74" height="1.74"/><rect class="cls-2" x="363.06" y="188.65" width="1.74" height="1.74"/><rect class="cls-2" x="360.3" y="124.5" width="1.74" height="1.74"/><rect class="cls-2" x="360.3" y="127.42" width="1.74" height="1.74"/><rect class="cls-2" x="360.3" y="130.33" width="1.74" height="1.74"/><rect class="cls-2" x="360.3" y="133.25" width="1.74" height="1.74"/><rect class="cls-2" x="360.3" y="136.17" width="1.74" height="1.74"/><rect class="cls-2" x="360.3" y="139.08" width="1.74" height="1.74"/><rect class="cls-2" x="360.3" y="142" width="1.74" height="1.74"/><rect class="cls-2" x="360.3" y="144.91" width="1.74" height="1.74"/><rect class="cls-2" x="360.3" y="147.83" width="1.74" height="1.74"/><rect class="cls-2" x="360.3" y="150.75" width="1.74" height="1.74"/><rect class="cls-2" x="360.3" y="153.66" width="1.74" height="1.74"/><rect class="cls-2" x="360.3" y="156.58" width="1.74" height="1.74"/><rect class="cls-2" x="360.3" y="159.49" width="1.74" height="1.74"/><rect class="cls-2" x="360.3" y="162.41" width="1.74" height="1.74"/><rect class="cls-2" x="360.3" y="165.33" width="1.74" height="1.74"/><rect class="cls-2" x="360.3" y="168.24" width="1.74" height="1.74"/><rect class="cls-2" x="360.3" y="174.07" width="1.74" height="1.74"/><rect class="cls-2" x="360.3" y="176.99" width="1.74" height="1.74"/><rect class="cls-2" x="360.3" y="179.91" width="1.74" height="1.74"/><rect class="cls-2" x="360.3" y="182.82" width="1.74" height="1.74"/><rect class="cls-2" x="360.3" y="188.65" width="1.74" height="1.74"/><rect class="cls-2" x="375.85" y="161.23" width="1.74" height="1.74"/><rect class="cls-2" x="375.85" y="164.15" width="1.74" height="1.74"/><rect class="cls-2" x="375.85" y="167.07" width="1.74" height="1.74"/><rect class="cls-2" x="375.85" y="169.98" width="1.74" height="1.74"/><rect class="cls-2" x="375.85" y="172.9" width="1.74" height="1.74"/><rect class="cls-2" x="375.85" y="175.81" width="1.74" height="1.74"/><rect class="cls-2" x="375.85" y="178.73" width="1.74" height="1.74"/><rect class="cls-2" x="375.85" y="184.56" width="1.74" height="1.74"/><rect class="cls-2" x="375.85" y="187.48" width="1.74" height="1.74"/><rect class="cls-2" x="375.85" y="190.39" width="1.74" height="1.74"/><rect class="cls-2" x="375.85" y="193.31" width="1.74" height="1.74"/><rect class="cls-2" x="375.85" y="196.23" width="1.74" height="1.74"/><rect class="cls-2" x="375.85" y="199.14" width="1.74" height="1.74"/><rect class="cls-2" x="375.85" y="202.06" width="1.74" height="1.74"/><rect class="cls-2" x="375.85" y="204.97" width="1.74" height="1.74"/><rect class="cls-2" x="373.09" y="161.23" width="1.74" height="1.74"/><rect class="cls-2" x="373.09" y="164.15" width="1.74" height="1.74"/><rect class="cls-2" x="373.09" y="167.07" width="1.74" height="1.74"/><rect class="cls-2" x="373.09" y="169.98" width="1.74" height="1.74"/><rect class="cls-2" x="373.09" y="172.9" width="1.74" height="1.74"/><rect class="cls-2" x="373.09" y="175.81" width="1.74" height="1.74"/><rect class="cls-2" x="373.09" y="184.56" width="1.74" height="1.74"/><rect class="cls-2" x="373.09" y="187.48" width="1.74" height="1.74"/><rect class="cls-2" x="373.09" y="190.39" width="1.74" height="1.74"/><rect class="cls-2" x="373.09" y="193.31" width="1.74" height="1.74"/><rect class="cls-2" x="373.09" y="196.23" width="1.74" height="1.74"/><rect class="cls-2" x="373.09" y="199.14" width="1.74" height="1.74"/><rect class="cls-2" x="373.09" y="202.06" width="1.74" height="1.74"/><rect class="cls-2" x="373.09" y="204.97" width="1.74" height="1.74"/><rect class="cls-2" x="370.33" y="161.23" width="1.74" height="1.74"/><rect class="cls-2" x="370.33" y="164.15" width="1.74" height="1.74"/><rect class="cls-2" x="370.33" y="167.07" width="1.74" height="1.74"/><rect class="cls-2" x="370.33" y="169.98" width="1.74" height="1.74"/><rect class="cls-2" x="370.33" y="172.9" width="1.74" height="1.74"/><rect class="cls-2" x="370.33" y="175.81" width="1.74" height="1.74"/><rect class="cls-2" x="370.33" y="181.65" width="1.74" height="1.74"/><rect class="cls-2" x="370.33" y="184.56" width="1.74" height="1.74"/><rect class="cls-2" x="370.33" y="187.48" width="1.74" height="1.74"/><rect class="cls-2" x="370.33" y="190.39" width="1.74" height="1.74"/><rect class="cls-2" x="370.33" y="193.31" width="1.74" height="1.74"/><rect class="cls-2" x="370.33" y="196.23" width="1.74" height="1.74"/><rect class="cls-2" x="370.33" y="199.14" width="1.74" height="1.74"/><rect class="cls-2" x="370.33" y="202.06" width="1.74" height="1.74"/><rect class="cls-2" x="370.33" y="204.97" width="1.74" height="1.74"/><rect class="cls-2" x="312.11" y="144.91" width="1.74" height="1.74"/><rect class="cls-2" x="312.11" y="147.83" width="1.74" height="1.74"/><rect class="cls-2" x="312.11" y="150.75" width="1.74" height="1.74"/><rect class="cls-2" x="312.11" y="153.66" width="1.74" height="1.74"/><rect class="cls-2" x="312.11" y="156.58" width="1.74" height="1.74"/><rect class="cls-2" x="312.11" y="159.49" width="1.74" height="1.74"/><rect class="cls-2" x="312.11" y="162.41" width="1.74" height="1.74"/><rect class="cls-2" x="312.11" y="165.33" width="1.74" height="1.74"/><rect class="cls-2" x="312.11" y="168.24" width="1.74" height="1.74"/><rect class="cls-2" x="312.11" y="171.16" width="1.74" height="1.74"/><rect class="cls-2" x="312.11" y="174.07" width="1.74" height="1.74"/><rect class="cls-2" x="312.11" y="176.99" width="1.74" height="1.74"/><rect class="cls-2" x="312.11" y="179.91" width="1.74" height="1.74"/><rect class="cls-2" x="312.11" y="185.74" width="1.74" height="1.74"/><rect class="cls-2" x="312.11" y="188.65" width="1.74" height="1.74"/><rect class="cls-2" x="312.11" y="191.57" width="1.74" height="1.74"/><rect class="cls-2" x="312.11" y="194.49" width="1.74" height="1.74"/><rect class="cls-2" x="312.11" y="200.32" width="1.74" height="1.74"/><rect class="cls-2" x="312.11" y="203.23" width="1.74" height="1.74"/><rect class="cls-2" x="312.11" y="206.15" width="1.74" height="1.74"/><rect class="cls-2" x="309.34" y="144.91" width="1.74" height="1.74"/><rect class="cls-2" x="309.34" y="147.83" width="1.74" height="1.74"/><rect class="cls-2" x="309.34" y="150.75" width="1.74" height="1.74"/><rect class="cls-2" x="309.34" y="153.66" width="1.74" height="1.74"/><rect class="cls-2" x="309.34" y="156.58" width="1.74" height="1.74"/><rect class="cls-2" x="309.34" y="159.49" width="1.74" height="1.74"/><rect class="cls-2" x="309.34" y="162.41" width="1.74" height="1.74"/><rect class="cls-2" x="309.34" y="165.33" width="1.74" height="1.74"/><rect class="cls-2" x="309.34" y="168.24" width="1.74" height="1.74"/><rect class="cls-2" x="309.34" y="171.16" width="1.74" height="1.74"/><rect class="cls-2" x="309.34" y="174.07" width="1.74" height="1.74"/><rect class="cls-2" x="309.34" y="176.99" width="1.74" height="1.74"/><rect class="cls-2" x="309.34" y="179.91" width="1.74" height="1.74"/><rect class="cls-2" x="309.34" y="188.65" width="1.74" height="1.74"/><rect class="cls-2" x="309.34" y="191.57" width="1.74" height="1.74"/><rect class="cls-2" x="309.34" y="197.4" width="1.74" height="1.74"/><rect class="cls-2" x="309.34" y="200.32" width="1.74" height="1.74"/><rect class="cls-2" x="309.34" y="203.23" width="1.74" height="1.74"/><rect class="cls-2" x="309.34" y="206.15" width="1.74" height="1.74"/><rect class="cls-2" x="306.58" y="144.91" width="1.74" height="1.74"/><rect class="cls-2" x="306.58" y="147.83" width="1.74" height="1.74"/><rect class="cls-2" x="306.58" y="150.75" width="1.74" height="1.74"/><rect class="cls-2" x="306.58" y="153.66" width="1.74" height="1.74"/><rect class="cls-2" x="306.58" y="156.58" width="1.74" height="1.74"/><rect class="cls-2" x="306.58" y="159.49" width="1.74" height="1.74"/><rect class="cls-2" x="306.58" y="162.41" width="1.74" height="1.74"/><rect class="cls-2" x="306.58" y="165.33" width="1.74" height="1.74"/><rect class="cls-2" x="306.58" y="168.24" width="1.74" height="1.74"/><rect class="cls-2" x="306.58" y="171.16" width="1.74" height="1.74"/><rect class="cls-2" x="306.58" y="174.07" width="1.74" height="1.74"/><rect class="cls-2" x="306.58" y="176.99" width="1.74" height="1.74"/><rect class="cls-2" x="306.58" y="179.91" width="1.74" height="1.74"/><rect class="cls-2" x="306.58" y="182.82" width="1.74" height="1.74"/><rect class="cls-2" x="306.58" y="188.65" width="1.74" height="1.74"/><rect class="cls-2" x="306.58" y="194.49" width="1.74" height="1.74"/><rect class="cls-2" x="306.58" y="197.4" width="1.74" height="1.74"/><rect class="cls-2" x="306.58" y="200.32" width="1.74" height="1.74"/><rect class="cls-2" x="306.58" y="203.23" width="1.74" height="1.74"/><rect class="cls-2" x="306.58" y="206.15" width="1.74" height="1.74"/><rect class="cls-2" x="323.36" y="161.54" width="1.74" height="1.74"/><rect class="cls-2" x="323.36" y="164.46" width="1.74" height="1.74"/><rect class="cls-2" x="323.36" y="167.37" width="1.74" height="1.74"/><rect class="cls-2" x="323.36" y="170.29" width="1.74" height="1.74"/><rect class="cls-2" x="323.36" y="173.2" width="1.74" height="1.74"/><rect class="cls-2" x="323.36" y="176.12" width="1.74" height="1.74"/><rect class="cls-2" x="323.36" y="184.87" width="1.74" height="1.74"/><rect class="cls-2" x="323.36" y="187.78" width="1.74" height="1.74"/><rect class="cls-2" x="323.36" y="190.7" width="1.74" height="1.74"/><rect class="cls-2" x="323.36" y="193.62" width="1.74" height="1.74"/><rect class="cls-2" x="323.36" y="196.53" width="1.74" height="1.74"/><rect class="cls-2" x="323.36" y="199.45" width="1.74" height="1.74"/><rect class="cls-2" x="323.36" y="202.37" width="1.74" height="1.74"/><rect class="cls-2" x="320.6" y="161.54" width="1.74" height="1.74"/><rect class="cls-2" x="320.6" y="164.46" width="1.74" height="1.74"/><rect class="cls-2" x="320.6" y="167.37" width="1.74" height="1.74"/><rect class="cls-2" x="320.6" y="170.29" width="1.74" height="1.74"/><rect class="cls-2" x="320.6" y="173.2" width="1.74" height="1.74"/><rect class="cls-2" x="320.6" y="176.12" width="1.74" height="1.74"/><rect class="cls-2" x="320.6" y="184.87" width="1.74" height="1.74"/><rect class="cls-2" x="320.6" y="187.78" width="1.74" height="1.74"/><rect class="cls-2" x="320.6" y="190.7" width="1.74" height="1.74"/><rect class="cls-2" x="320.6" y="193.62" width="1.74" height="1.74"/><rect class="cls-2" x="320.6" y="196.53" width="1.74" height="1.74"/><rect class="cls-2" x="320.6" y="199.45" width="1.74" height="1.74"/><rect class="cls-2" x="320.6" y="205.28" width="1.74" height="1.74"/><rect class="cls-1" x="254.39" y="66.19" width="3.45" height="189.49"/><rect class="cls-1" x="309.84" y="66.19" width="2.92" height="189.49"/><rect class="cls-1" x="364.76" y="66.19" width="2.92" height="189.49"/><path class="cls-4" d="M78.82,358.72s-4.46-9.73.64-19.33,6.58-11.86,3.33-13.82S78,333.24,78,333.24a21.66,21.66,0,0,1-.48-13.58c2.26-6.94,3.68-18.25.59-19.46s-.59,14.11-3.27,19.33a45,45,0,0,1-2.62-11.39c-.37-5.58.21-14.48-2.23-16.76s-4-.7-1.6,11.6a128.73,128.73,0,0,1,2.38,22.31S65.51,309.14,62,308.67s-3.55,4.76-.51,9.29,8.91,12.66,9.87,16.84c0,0-5.81-12.15-11-8.42s4.55,11.06,8.91,13.71,7.38,19.27,7.38,19.27Z" transform="translate(0 -54.95)"/><path class="cls-1" d="M75.29,362.71s4.34-9.8-.87-19.32-6.72-11.76-3.49-13.77,4.83,7.61,4.83,7.61a21.68,21.68,0,0,0,.31-13.58c-2.34-6.91-3.9-18.19-.82-19.45s.76,14.1,3.5,19.28A45.06,45.06,0,0,0,81.24,312c.3-5.58-.38-14.48,2-16.8s4-.76,1.74,11.58a128.84,128.84,0,0,0-2.11,22.34s5.1-16.22,8.65-16.74,3.61,4.7.62,9.28-8.75,12.79-9.67,17c0,0,5.67-12.23,10.94-8.59S89,341.22,84.7,343.94s-7.15,19.38-7.15,19.38Z" transform="translate(0 -54.95)"/><polygon class="cls-1" points="95.33 300.77 59.44 300.77 62.35 326.45 92.43 326.45 95.33 300.77"/><path class="cls-1" d="M421.86,353.89C422,353,425,332.49,419,325.4a6.46,6.46,0,0,0-4.95-2.44c-12-.28-13.68,9.38-13.7,9.48l1.42.22c.06-.35,1.48-8.53,12.24-8.27a5,5,0,0,1,3.89,1.93c5.55,6.6,2.57,27.15,2.53,27.36Z" transform="translate(0 -54.95)"/><path class="cls-1" d="M422.59,353l1.44,0c0-.19-.48-18.92,8.75-22.79,9-3.79,13.11,4,13.28,4.34l1.28-.64c0-.09-4.82-9.33-15.12-5C422.08,333.05,422.56,352.15,422.59,353Z" transform="translate(0 -54.95)"/><path class="cls-1" d="M422.55,354.43c0-.3.09-29.92,5.86-38.59,5.55-8.32,14.49-4.4,14.87-4.23l.59-1.31c-.1,0-10.43-4.6-16.66,4.74-6,9-6.1,38.15-6.1,39.38Z" transform="translate(0 -54.95)"/><path class="cls-4" d="M412.33,323.68s5.25,1.94,3.69,6.51-18.18,12.1-18.18,12.1-7-6.38-.57-16.75S412.19,320.4,412.33,323.68Z" transform="translate(0 -54.95)"/><path class="cls-4" d="M428.67,314.28s-3.73-.4-3.43-2.67,14.5-8.12,22.88,1.34c0,0-5.37,9.22-13.12,9.34S428.67,314.28,428.67,314.28Z" transform="translate(0 -54.95)"/><path class="cls-4" d="M432.5,329.46s-2.57-2.08.2-3.09,16.41-.73,16.55,12.78c0,0-15.88,2.64-17.84-2.51S432.5,329.46,432.5,329.46Z" transform="translate(0 -54.95)"/><polygon class="cls-1" points="409.51 326.45 434.15 326.45 436.81 299.48 406.85 299.48 409.51 326.45"/><rect class="cls-4" x="405.53" y="351.45" width="32.59" height="5.95" transform="translate(843.65 653.91) rotate(180)"/><circle class="cls-4" cx="159.26" cy="64.3" r="14.17"/><circle class="cls-3" cx="159.26" cy="64.3" r="12.05"/><polyline class="cls-5" points="159.83 56.04 159.83 64.46 165.41 61.3"/></g><g id="Shadow"><ellipse id="_Path_" data-name="&lt;Path&gt;" class="cls-6" cx="250" cy="361.29" rx="193.89" ry="11.32"/></g><g id="Board"><rect class="cls-7" x="79.67" y="113.62" width="152.86" height="102.58"/><polygon class="cls-7" points="114.2 170.18 109.54 170.18 109.54 348.88 99.35 351.05 99.35 352.85 111.04 352.85 112.7 352.85 124.38 352.85 124.38 351.05 114.2 348.88 114.2 170.18"/><polygon class="cls-7" points="202.66 348.88 202.66 170.18 198 170.18 198 348.88 187.81 351.05 187.81 352.85 199.5 352.85 201.16 352.85 212.84 352.85 212.84 351.05 202.66 348.88"/><g class="cls-8"><rect class="cls-9" x="79.67" y="113.62" width="152.86" height="102.58"/><polygon class="cls-9" points="114.2 170.18 109.54 170.18 109.54 348.88 99.35 351.05 99.35 352.85 111.04 352.85 112.7 352.85 124.38 352.85 124.38 351.05 114.2 348.88 114.2 170.18"/><polygon class="cls-9" points="202.66 348.88 202.66 170.18 198 170.18 198 348.88 187.81 351.05 187.81 352.85 199.5 352.85 201.16 352.85 212.84 352.85 212.84 351.05 202.66 348.88"/></g><rect class="cls-9" x="109.23" y="147.85" width="93.73" height="144.02" transform="translate(375.96 8.81) rotate(90)"/><g class="cls-10"><polygon points="217.17 205.13 92.85 205.13 92.85 135.43 93.85 135.43 93.85 204.13 217.17 204.13 217.17 205.13"/></g><rect class="cls-10" x="99.35" y="193.56" width="5.37" height="10.07"/><rect class="cls-11" x="99.35" y="193.56" width="5.37" height="2.93"/><rect class="cls-10" x="110.32" y="177.45" width="5.37" height="26.17"/><rect class="cls-11" x="110.32" y="177.45" width="5.37" height="7.62"/><rect class="cls-10" x="121.29" y="183.49" width="5.37" height="20.14"/><rect class="cls-11" x="121.29" y="183.49" width="5.37" height="5.86"/><rect class="cls-10" x="132.26" y="174.23" width="5.37" height="29.39"/><rect class="cls-11" x="132.26" y="174.23" width="5.37" height="8.56"/><rect class="cls-10" x="143.23" y="165.69" width="5.37" height="37.94"/><rect class="cls-11" x="143.23" y="165.69" width="5.37" height="11.05"/><rect class="cls-10" x="154.21" y="159.23" width="5.37" height="44.4"/><rect class="cls-11" x="154.21" y="159.23" width="5.37" height="12.93"/><rect class="cls-10" x="165.18" y="166.7" width="5.37" height="36.93"/><rect class="cls-11" x="165.18" y="166.7" width="5.37" height="10.75"/><rect class="cls-10" x="176.15" y="165.09" width="5.37" height="38.54"/><rect class="cls-11" x="176.15" y="165.09" width="5.37" height="11.22"/><rect class="cls-10" x="187.12" y="155.25" width="5.37" height="48.37"/><rect class="cls-11" x="187.12" y="155.25" width="5.37" height="14.08"/><rect class="cls-10" x="198.09" y="145.34" width="5.37" height="58.28"/><rect class="cls-11" x="198.09" y="145.34" width="5.37" height="16.97"/><rect class="cls-10" x="209.06" y="136.68" width="5.37" height="66.95"/><rect class="cls-11" x="209.06" y="136.68" width="5.37" height="19.49"/><rect class="cls-10" x="121.29" y="124.9" width="66.52" height="2.77"/></g><g id="Character_2" data-name="Character 2"><path class="cls-12" d="M226.32,248.1l-4.65-2.28s-1.38-3.06-1.48-3-8.9-1.81-8.9-1.81-.1,5.2.89,6.3,7,1.62,7.32,1.81,1-.43,1-.43l4.94,3.25Z" transform="translate(0 -54.95)"/><path class="cls-7" d="M277.12,209s-1.93-4.45-8.16-4.45-11.42,3.71-11.13,8.46-3.26,4.3-3.86,8.9,1.63,5.79,1.78,7.71-2.37,1.34-4,4.6S248,242.06,255,248.14s26.7,5,31,1.34,4.15-10.83,0-12.76-.3-1.63.15-5.93-3.41-5.93-3.12-9.35S284.39,209.27,277.12,209Z" transform="translate(0 -54.95)"/><path class="cls-11" d="M252.91,237.84v12.23s-1,1.31-2.62,3a40.4,40.4,0,0,1-5.42,4.94c-1.87,1.36-3.76,2.29-5.29,2.09-4.84-.62-17.9-8.13-17.9-8.13l2.17-5.77s14.83,7.63,15.73,6.84S250.22,238.54,252.91,237.84Z" transform="translate(0 -54.95)"/><path class="cls-10" d="M250.29,253.07a40.4,40.4,0,0,1-5.42,4.94c-.71-5.46,5.56-12.19,5.56-12.19S250.52,249.32,250.29,253.07Z" transform="translate(0 -54.95)"/><path class="cls-12" d="M254.63,282.14s-8.13,43.32-10.3,61.11c-2.83,23.2-14.42,57.15-14.42,57.15l4.63,1.2s16.34-28.85,19.52-54.8c13-26.53,14-59.19,14-59.19Z" transform="translate(0 -54.95)"/><path class="cls-7" d="M221.28,410.9a6.77,6.77,0,0,1,2.38-.6h0s2.85-1.68,5.67-8.19l3.17,0a2.62,2.62,0,0,1,2.44,1.75,1.48,1.48,0,0,1,.09.44,17.83,17.83,0,0,1-.24,2.29,63.3,63.3,0,0,1-1.86,7.47l-.54-.14,1-4.74c.33-1.61-1.37-.05-2.15,1.57s-2,3.26-5.49,2.45C221.65,412.23,220,411.64,221.28,410.9Z" transform="translate(0 -54.95)"/><path class="cls-12" d="M263.07,281.45s1,44.07,2.57,61.92c2,23.29-2.29,58.9-2.29,58.9l4.78.21s10-31.6,7.76-57.65c7.21-28.64,1.48-60.81,1.48-60.81Z" transform="translate(0 -54.95)"/><path class="cls-7" d="M255.91,412.35a6.77,6.77,0,0,1,2.3-.86h0s2.65-2,4.75-8.75l3.15-.36a2.62,2.62,0,0,1,2.61,1.47,1.48,1.48,0,0,1,.14.43,17.84,17.84,0,0,1,0,2.3,63.31,63.31,0,0,1-1,7.63l-.55-.08.46-4.82c.15-1.64-1.36.09-2,1.79s-1.62,3.45-5.2,3C256.41,413.63,254.71,413.22,255.91,412.35Z" transform="translate(0 -54.95)"/><path class="cls-12" d="M229.91,400.4s-4,8.3-6.25,9.9c0,0,3.06,1.82,6.25-2.24,4.12-5.25,5.13-3.79,5.13-3.79a14.86,14.86,0,0,0-.5-2.68C233.92,399.91,229.91,400.4,229.91,400.4Z" transform="translate(0 -54.95)"/><path class="cls-12" d="M263.83,400.33s-1.12,3.07-2.62,6.45a14.65,14.65,0,0,1-3,4.72s2.61.85,4-.79,3.81-7.53,6.51-6.86a6.28,6.28,0,0,0-.6-1.37C267.72,401.81,263.83,400.33,263.83,400.33Z" transform="translate(0 -54.95)"/><path class="cls-11" d="M251.84,274.91s-3.22,32.07-8,64.22a339.86,339.86,0,0,1-12.86,54l9.49.79s18.2-45.1,23.74-71.21c0,0,2,46.28-1.19,72l8.31-.4s20.27-87.1,5.14-118.48Z" transform="translate(0 -54.95)"/><path class="cls-13" d="M271.34,394.33l-8.31.39c3.16-25.71,1.19-72,1.19-72-1.4,6.59-3.61,14.38-6.12,22.36-7.45,23.63-17.62,48.85-17.62,48.85l-9.49-.8a339.63,339.63,0,0,0,12.85-54c4.78-32.15,8-64.22,8-64.22l24.64.93C291.61,307.22,271.34,394.33,271.34,394.33Z" transform="translate(0 -54.95)"/><path class="cls-10" d="M264.22,322.72c-1.4,6.59-3.61,14.38-6.12,22.36-1-15,2.86-41.95,2.86-41.95Z" transform="translate(0 -54.95)"/><polygon class="cls-7" points="276.43 219.33 276.5 222.95 251.72 221.53 251.63 217.24 276.43 219.33"/><rect class="cls-9" x="257.22" y="273.15" width="5.43" height="4.12" transform="translate(499.86 513.08) rotate(-175.97)"/><rect class="cls-11" x="267.99" y="272.94" width="1.23" height="6.26" transform="translate(528.2 505.67) rotate(-178.16)"/><rect class="cls-13" x="267.99" y="272.94" width="1.23" height="6.26" transform="translate(528.2 505.67) rotate(-178.16)"/><rect class="cls-11" x="252.84" y="271.56" width="1.23" height="6.26" transform="translate(497.98 502.42) rotate(-178.16)"/><rect class="cls-13" x="252.84" y="271.56" width="1.23" height="6.26" transform="translate(497.98 502.42) rotate(-178.16)"/><path class="cls-7" d="M251.68,272.65l24.74,1.63c.39-6.15.83-8,2.69-15.37.59-2.37,1.33-5,2.29-8.08.51-1.63,1.07-3.39,1.7-5.28.47-1.43,1-3,1.54-4.56a73.46,73.46,0,0,0-10.27-2.48,78.9,78.9,0,0,0-11.11-1.17c-4.81,0-10.35.5-10.35.5s-.79.19-1.28,5.29C251.18,247.93,250.69,255.21,251.68,272.65Z" transform="translate(0 -54.95)"/><path class="cls-13" d="M251.68,272.65l24.74,1.63c.39-6.15.83-8,2.69-15.37.59-2.37,1.33-5,2.29-8.08.51-1.63,1.07-3.39,1.7-5.28.47-1.43,1-3,1.54-4.56a73.46,73.46,0,0,0-10.27-2.48,78.9,78.9,0,0,0-11.11-1.17c-4.81,0-10.35.5-10.35.5s-.79.19-1.28,5.29C251.18,247.93,250.69,255.21,251.68,272.65Z" transform="translate(0 -54.95)"/><path class="cls-12" d="M265.3,242.81c6.1-.78,7.93-3.39,7.93-3.39-3.87-3.65-.65-10-.65-10l-7.34,1.37a21.57,21.57,0,0,1,.29,3.09c.06,4.46-2,4.5-2,4.5C262.28,240.82,265.3,242.81,265.3,242.81Z" transform="translate(0 -54.95)"/><path class="cls-10" d="M265.24,230.81a21.57,21.57,0,0,1,.29,3.09,8.17,8.17,0,0,0,7.06-4.46Z" transform="translate(0 -54.95)"/><path class="cls-12" d="M269.3,210.28c-6.38-.35-8.63,3-9.45,9.51-1,8.19.47,14.13,8.55,12.81C279.36,230.8,279.9,210.86,269.3,210.28Z" transform="translate(0 -54.95)"/><path class="cls-14" d="M264,219.65a13.51,13.51,0,0,1-2,2.55,1.76,1.76,0,0,0,1.64.81Z" transform="translate(0 -54.95)"/><ellipse class="cls-7" cx="268.56" cy="219.4" rx="0.95" ry="0.63" transform="translate(28.87 415.05) rotate(-85.52)"/><path class="cls-7" d="M268.78,218.48l-1.1-.54S268.16,219,268.78,218.48Z" transform="translate(0 -54.95)"/><ellipse class="cls-7" cx="262.06" cy="218.78" rx="0.95" ry="0.63" transform="matrix(0.08, -1, 1, 0.08, 23.49, 408)"/><path class="cls-7" d="M262.27,217.87l-1.1-.54S261.66,218.33,262.27,217.87Z" transform="translate(0 -54.95)"/><path class="cls-15" d="M268.23,214.94a3.33,3.33,0,0,1,2.72,1.12" transform="translate(0 -54.95)"/><path class="cls-15" d="M263.61,214.42a3,3,0,0,0-2.57.39" transform="translate(0 -54.95)"/><path class="cls-7" d="M264.42,225.58a16.17,16.17,0,0,1,.62,2.26l.41,0c1.87-.09,2.71-.74,3.07-1.45a2.41,2.41,0,0,0,.25-1.12,2.34,2.34,0,0,0-.08-.65,8.81,8.81,0,0,1-3.63.93C264.67,225.57,264.42,225.58,264.42,225.58Z" transform="translate(0 -54.95)"/><path class="cls-9" d="M265.06,225.54l.2.66c1.76-.09,3-.38,3.51-.94a2.34,2.34,0,0,0-.08-.65A8.81,8.81,0,0,1,265.06,225.54Z" transform="translate(0 -54.95)"/><path class="cls-16" d="M265.46,227.82c1.87-.09,2.71-.74,3.07-1.45a6,6,0,0,0-2.06.51A2.26,2.26,0,0,0,265.46,227.82Z" transform="translate(0 -54.95)"/><path class="cls-7" d="M275.68,221.42s-2.7-5.41-2-9.43c0,0-12.37-5.86-13.69,6.94,0,0-.61-11.47,10.38-11.12s10.06,16.4,4.13,20.87C274.47,228.68,277.35,224.8,275.68,221.42Z" transform="translate(0 -54.95)"/><path class="cls-7" d="M276.33,209.67s-5-4.45-9.54-3.61-3.76,6.82,2.23,9.1,7.22,5.19,7.22,5.19l5.19-4.65Z" transform="translate(0 -54.95)"/><path class="cls-17" d="M265.45,207.93s-2.13.15-1.53,3.31,5.09,4.76,9.35,6.24,3.91,3.16,3.91,3.16" transform="translate(0 -54.95)"/><path class="cls-12" d="M274.57,222.71a2.81,2.81,0,0,1,3.15-2.39c2,.32,2.69,4.44-2.29,5.14C274.72,225.56,274.36,224.85,274.57,222.71Z" transform="translate(0 -54.95)"/><path class="cls-12" d="M278.89,240.1s-7.16,5.81-13.83,5.72-9-7.59-9-7.59A38,38,0,0,1,278.89,240.1Z" transform="translate(0 -54.95)"/><path class="cls-11" d="M284.65,241l-3.22,38.62-6.91.58c-1-5.25-1.2-13.54-1.07-21.36h0c.18-10.6.93-20.31.93-20.31A68,68,0,0,1,284.65,241Z" transform="translate(0 -54.95)"/><path class="cls-13" d="M275.48,248.2l1.87,2.86-3.9,7.75c.18-10.6.93-20.31.93-20.31l5.95,5.53Z" transform="translate(0 -54.95)"/><path class="cls-11" d="M261,237.28h0c-.16.28-3.6,6.54-6.34,18.52a135.5,135.5,0,0,0-3.05,22.09L249,276.68s-1.24-29.91,3.91-38.84Z" transform="translate(0 -54.95)"/><path class="cls-13" d="M261,237.29c-.16.28-3.6,6.54-6.34,18.52l-1.23-7.72,2.59-2.28-2.59-4.93Z" transform="translate(0 -54.95)"/><path class="cls-11" d="M294.66,264.32a2.3,2.3,0,0,1-3.46,1.14,8.79,8.79,0,0,1-3.06-2.85c-.62-.89-1.45-2.23-2.31-3.65-1.83-3.07-3.73-6.47-3.73-6.47L284.65,241C288.33,242.75,296,261.35,294.66,264.32Z" transform="translate(0 -54.95)"/><path class="cls-10" d="M291.2,265.46a8.79,8.79,0,0,1-3.06-2.85c-.62-.89-1.45-2.23-2.31-3.65A34,34,0,0,1,288,255.5l1.86,5.23s3.26.74,3.78,2.44C293.83,263.82,292.72,264.74,291.2,265.46Z" transform="translate(0 -54.95)"/><path class="cls-7" d="M291.09,250.52,284.92,274a1.2,1.2,0,0,1-1.29.86l-16.35-2.18a.89.89,0,0,1-.76-1.14l6.16-23.48a1.2,1.2,0,0,1,1.29-.86l16.35,2.18A.89.89,0,0,1,291.09,250.52Z" transform="translate(0 -54.95)"/><path class="cls-18" d="M291.09,250.52,284.92,274a1.2,1.2,0,0,1-1.29.86L268,272.78a.89.89,0,0,1-.76-1.14l6.16-23.48a1.2,1.2,0,0,1,1.29-.86l15.6,2.08A.89.89,0,0,1,291.09,250.52Z" transform="translate(0 -54.95)"/><path class="cls-19" d="M279.74,259.47a1.72,1.72,0,0,0-1.85,1.24,1.28,1.28,0,0,0,1.09,1.63,1.72,1.72,0,0,0,1.85-1.24A1.28,1.28,0,0,1,279.74,259.47Z" transform="translate(0 -54.95)"/><path class="cls-11" d="M292.41,269.85c-1.1.58-3.59-.3-4.34-.6l-.23-.09s-1.36-4.42,2.18-6.82l.08,0c1.13-.61,4.61.17,4.72,1.35C295.23,268.37,293.72,269.16,292.41,269.85Z" transform="translate(0 -54.95)"/><path class="cls-10" d="M290.26,266.07a5.63,5.63,0,0,1-2.19,3.18l-.23-.09s-1.36-4.42,2.18-6.82l.08,0C290.4,262.7,290.88,263.75,290.26,266.07Z" transform="translate(0 -54.95)"/><path class="cls-12" d="M285.17,260.46s2.27-.1,3.31,0,.72,3.45.72,3.45l.89.48s.73,2-.83,3l-.8-.27a2.28,2.28,0,0,1-.87,1.19c-.64.4-3.81-.49-3.81-.49Z" transform="translate(0 -54.95)"/></g><g id="Table"><path class="cls-7" d="M193,293.37H160.84l5.33-21.08a1.17,1.17,0,0,1,1.09-.83h30.37a.64.64,0,0,1,.67.83Z" transform="translate(0 -54.95)"/><polygon class="cls-11" points="192.72 236.66 161.97 236.66 166.64 218.16 197.4 218.16 192.72 236.66"/><polygon class="cls-20" points="192.72 236.66 161.97 236.66 166.64 218.16 197.4 218.16 192.72 236.66"/><path class="cls-7" d="M179,292.69H146.8V294a1,1,0,0,0,1,1h44.09a1,1,0,0,0,1-1v-1.34Z" transform="translate(0 -54.95)"/><path class="cls-20" d="M179,292.69H146.8V294a1,1,0,0,0,1,1h44.09a1,1,0,0,0,1-1v-1.34Z" transform="translate(0 -54.95)"/><path class="cls-21" d="M163.9,292.69v.46h-5.6v-.46H146.8V294a1,1,0,0,0,1,1h30.09a1,1,0,0,0,1-1v-1.34Z" transform="translate(0 -54.95)"/><polygon class="cls-20" points="180.7 229.07 165.97 229.07 168.1 220.62 182.84 220.62 180.7 229.07"/><polygon class="cls-11" points="182.71 221.11 167.98 221.11 168.1 220.62 182.84 220.62 182.71 221.11"/><polygon class="cls-22" points="191.94 235.33 171.44 235.33 174.41 223.57 194.92 223.57 191.94 235.33"/><polygon class="cls-11" points="194.74 224.26 174.24 224.26 174.41 223.57 194.92 223.57 194.74 224.26"/><polygon class="cls-7" points="400.9 362.36 396.23 362.36 387.84 245.57 394.03 245.57 400.9 362.36"/><polygon class="cls-23" points="400.9 362.36 396.23 362.36 388.25 251.37 387.84 245.76 394.03 245.76 394.37 251.37 400.9 362.36"/><polygon class="cls-10" points="394.37 251.09 388.25 251.09 387.84 245.76 394.03 245.76 394.37 251.09"/><polygon class="cls-7" points="269.88 362.36 265.21 362.36 272.07 245.57 278.26 245.57 269.88 362.36"/><polygon class="cls-23" points="278.26 245.76 277.85 251.37 269.87 362.36 265.21 362.36 271.73 251.37 272.07 245.76 278.26 245.76"/><polygon class="cls-10" points="272.07 245.76 278.26 245.76 277.85 251.09 271.73 251.09 272.07 245.76"/><polygon class="cls-7" points="213.19 362.36 208.52 362.36 200.13 245.57 206.32 245.57 213.19 362.36"/><polygon class="cls-23" points="213.19 362.36 208.52 362.36 200.54 251.37 200.13 245.76 206.32 245.76 206.66 251.37 213.19 362.36"/><polygon class="cls-10" points="206.66 251.09 200.54 251.09 200.13 245.76 206.32 245.76 206.66 251.09"/><polygon class="cls-7" points="92.17 362.36 87.5 362.36 94.36 245.57 100.56 245.57 92.17 362.36"/><polygon class="cls-23" points="100.55 245.76 100.14 251.37 92.16 362.36 87.5 362.36 94.02 251.37 94.36 245.76 100.55 245.76"/><polygon class="cls-10" points="94.36 245.76 100.55 245.76 100.14 251.09 94.02 251.09 94.36 245.76"/><path class="cls-11" d="M89.45,242.65H398.94a0,0,0,0,1,0,0v4.15a1.7,1.7,0,0,1-1.7,1.7H91.16a1.7,1.7,0,0,1-1.7-1.7v-4.15a0,0,0,0,1,0,0Z"/><path class="cls-20" d="M89.45,242.65H398.94a0,0,0,0,1,0,0v4.15a1.7,1.7,0,0,1-1.7,1.7H91.16a1.7,1.7,0,0,1-1.7-1.7v-4.15a0,0,0,0,1,0,0Z"/><rect class="cls-10" x="89.45" y="242.65" width="309.49" height="2.92"/><path class="cls-11" d="M401.84,298.36H86.56a1.65,1.65,0,0,1-1.65-1.65h0a1.65,1.65,0,0,1,1.65-1.65H401.84a1.65,1.65,0,0,1,1.65,1.65h0A1.65,1.65,0,0,1,401.84,298.36Z" transform="translate(0 -54.95)"/><path class="cls-20" d="M401.84,298.36H86.56a1.65,1.65,0,0,1-1.65-1.65h0a1.65,1.65,0,0,1,1.65-1.65H401.84a1.65,1.65,0,0,1,1.65,1.65h0A1.65,1.65,0,0,1,401.84,298.36Z" transform="translate(0 -54.95)"/><path class="cls-7" d="M298.16,293.37h32.13L325,272.29a1.17,1.17,0,0,0-1.09-.83H293.5a.64.64,0,0,0-.67.83Z" transform="translate(0 -54.95)"/><polygon class="cls-11" points="298.4 236.66 329.15 236.66 324.48 218.16 293.72 218.16 298.4 236.66"/><polygon class="cls-20" points="298.4 236.66 329.15 236.66 324.48 218.16 293.72 218.16 298.4 236.66"/><path class="cls-7" d="M312.16,292.69h32.17V294a1,1,0,0,1-1,1H299.2a1,1,0,0,1-1-1v-1.34Z" transform="translate(0 -54.95)"/><path class="cls-20" d="M312.16,292.69h32.17V294a1,1,0,0,1-1,1H299.2a1,1,0,0,1-1-1v-1.34Z" transform="translate(0 -54.95)"/><path class="cls-21" d="M327.22,292.69v.46h5.6v-.46h11.5V294a1,1,0,0,1-1,1H313.2a1,1,0,0,1-1-1v-1.34Z" transform="translate(0 -54.95)"/><polygon class="cls-22" points="299.75 235.3 327.35 235.3 323.34 219.46 295.74 219.46 299.75 235.3"/><polygon class="cls-11" points="295.98 220.39 323.58 220.39 323.34 219.46 295.74 219.46 295.98 220.39"/></g><g id="Character_3" data-name="Character 3"><g id="_Group_" data-name="&lt;Group&gt;"><path class="cls-7" d="M368.46,409l7.89-.49a.5.5,0,0,1,.55.44h0l.77,6.22a1.24,1.24,0,0,1-1.15,1.32c-2.75.13-4.08.05-7.55.24a65.34,65.34,0,0,1-9.27.3c-2.94-.28-2.58-3.18-1.31-3.32a19.38,19.38,0,0,0,8.88-4.23A2,2,0,0,1,368.46,409Z" transform="translate(0 -54.95)"/><path class="cls-7" d="M328.28,409l7.89-.49a.5.5,0,0,1,.55.44h0l.77,6.22a1.24,1.24,0,0,1-1.15,1.32c-2.75.13-4.08.05-7.55.24a65.34,65.34,0,0,1-9.27.3c-2.94-.28-2.58-3.18-1.31-3.32a19.38,19.38,0,0,0,8.88-4.23A2,2,0,0,1,328.28,409Z" transform="translate(0 -54.95)"/><path class="cls-12" d="M357.89,290.07l-6.48,1a24.7,24.7,0,0,0-4.52-1,30.17,30.17,0,0,0-5,0S339,291.17,339,294c0,0,6.84,1.83,9.47.73l9.47-.73Z" transform="translate(0 -54.95)"/><path class="cls-11" d="M373.26,265.37c-4,4.17-6.78,20.3-7.51,21.4s-14.66,3.12-14.66,3.12-1.47,3,0,5.56c0,0,17.26-.79,19.36-1.89s7.23-13.14,7.23-13.14a24.49,24.49,0,0,0-.68-8.3C375.83,267,373.26,265.37,373.26,265.37Z" transform="translate(0 -54.95)"/><path class="cls-24" d="M373.26,265.37c-4,4.17-6.78,20.3-7.51,21.4s-14.66,3.12-14.66,3.12-1.47,3,0,5.56c0,0,17.26-.79,19.36-1.89s7.23-13.14,7.23-13.14a24.49,24.49,0,0,0-.68-8.3C375.83,267,373.26,265.37,373.26,265.37Z" transform="translate(0 -54.95)"/><path class="cls-14" d="M342.64,243.16a18,18,0,0,1-2,3.84,2.34,2.34,0,0,0,2.36.65Z" transform="translate(0 -54.95)"/><ellipse class="cls-25" cx="342.39" cy="241.92" rx="0.85" ry="1.27" transform="translate(-25.4 -14.25) rotate(-6.56)"/><path class="cls-15" d="M341.72,239.24a1.32,1.32,0,0,1,1.13.4" transform="translate(0 -54.95)"/><path class="cls-12" d="M344.47,251a9.9,9.9,0,0,0,.53.88,9.78,9.78,0,0,0,5.87,4,8.72,8.72,0,0,0,9.69-4.16c2.52-4.27,1.43-8.18.13-15a9.44,9.44,0,0,0-14.93-5.94C339.9,235.21,341.51,245.36,344.47,251Z" transform="translate(0 -54.95)"/><path class="cls-10" d="M349.46,255.48a9.67,9.67,0,0,0,1.41.45,8.77,8.77,0,0,0,7.39-1.52,10.27,10.27,0,0,0-1.76-2A13.59,13.59,0,0,0,349.46,255.48Z" transform="translate(0 -54.95)"/><path class="cls-12" d="M368.86,260.17c-2.53,3.82-14.65,5.32-14.65,5.32s-5.37-.11-4.71-1.94c2.84-1.24,3.92-3,4.07-4.9a8.88,8.88,0,0,0-.55-3.46,18.4,18.4,0,0,0-.73-1.82l8.09-9.88C358.26,254.41,364.76,257.46,368.86,260.17Z" transform="translate(0 -54.95)"/><path class="cls-7" d="M342.61,230.5c2.29-3.6,4.33-3,4.33-3,1.46-3,10-3.14,14.41-.17s5.88,8.53,5.59,12.95c-.42,6.43-4.45,13-4.45,13h0c-5.07,1.35-9.33.24-9.65-2.45s-3-4.68-3-4.68c-2.5.84-4.76-1.94-4.76-1.94s-2.83-2.5-2.07-6S340.67,233.53,342.61,230.5Z" transform="translate(0 -54.95)"/><path class="cls-12" d="M350.69,244.39a4.46,4.46,0,0,1-1.47,3.52c-1.21.92-2.59-.77-2.9-2.82-.26-1.82,0-4.56,1.56-4.6S350.71,242.47,350.69,244.39Z" transform="translate(0 -54.95)"/><path class="cls-7" d="M346.26,244.49s.69,5.83,2.26,8.15,1.38,3.11,3.53,3.48c0,0-1.21,1.61-2.3,1.38s-.84-1.15-1.81-1.14-2.63-.65-2.45-1.65.36-1.27-.91-2.13-1.72-2.8-1-3.61a2.31,2.31,0,0,1,2-.56l-.1-4.34Z" transform="translate(0 -54.95)"/><path class="cls-11" d="M351.68,263.55s2-8.79,13.75-8.7l3,4.35Z" transform="translate(0 -54.95)"/><path class="cls-26" d="M351.68,263.55s2-8.79,13.75-8.7l3,4.35Z" transform="translate(0 -54.95)"/><path class="cls-11" d="M353.65,372.3c4.47,17,11.51,38.88,11.51,38.88l12.36-.94s-6.71-29.55-8.55-47.69c-1.14-11.2-1-20.46,2.24-21.18,2.06-.45,6.89-.44,13.08-.29V318c-17.36,3.56-34.63,10.29-35.94,15.68C346.51,341.29,349.72,357.36,353.65,372.3Z" transform="translate(0 -54.95)"/><path class="cls-10" d="M353.65,372.3c4.62-2.92,10-6.36,15.32-9.76-1.14-11.2-1-20.46,2.24-21.18,2.06-.45,6.89-.44,13.08-.29V318c-17.36,3.56-34.63,10.29-35.94,15.68C346.51,341.29,349.72,357.36,353.65,372.3Z" transform="translate(0 -54.95)"/><path class="cls-11" d="M360.72,311.16l-2.94-8.88s-2.11-16.45-12.84-37.17c0,0,12.91-9.17,27.22-7.8,11,1.05,21.37,29.28,24.61,51.62Z" transform="translate(0 -54.95)"/><path class="cls-27" d="M396.77,308.93l-36,2.23-3-8.88a74.36,74.36,0,0,0-1.54-7.58,127.84,127.84,0,0,0-3.77-12.33,141.27,141.27,0,0,0-7.53-17.26s12.91-9.16,27.22-7.8C383.17,258.36,393.53,286.59,396.77,308.93Z" transform="translate(0 -54.95)"/><path class="cls-11" d="M360.42,315.75,359.33,307l35.37-5.82s11.57,22.92,5.91,34.16c-5.19,10.31-60.48,4.17-69,6s5.79,68.72,5.79,68.72L325,411s-20.22-61.12-16.29-77.32C310.46,326.63,339.61,317.27,360.42,315.75Z" transform="translate(0 -54.95)"/><polygon points="396 250.21 379.61 252.36 379.08 249.94 395.5 247.55 396 250.21"/><polygon points="377.71 249.96 377.91 252.36 362.76 254.44 362.76 252.07 377.71 249.96"/><polygon points="361.82 252.2 361.82 254.44 359.63 254.74 359.63 252.57 361.82 252.2"/><path class="cls-10" d="M356.23,295.48a117.54,117.54,0,0,0-3.77-11.75,9.43,9.43,0,0,1,2.59-3.32S358.44,291.44,356.23,295.48Z" transform="translate(0 -54.95)"/><path class="cls-12" d="M327.58,292.55l-5.46-.88a24.7,24.7,0,0,0-4.52-1,30.15,30.15,0,0,0-5,0s-2.93,1.1-2.93,3.91c0,0,6.84,1.83,9.47.73l8.05,1.82Z" transform="translate(0 -54.95)"/><path class="cls-11" d="M344.93,265.37c-2.55,2.8-1.06,25.7-1.89,27.27s-19.91-1.6-19.91-1.6l-1.26,5.67s22.43,6.59,26.54,6.67S355,279.19,355,279.19a21,21,0,0,0-3.58-7.68A20.53,20.53,0,0,0,344.93,265.37Z" transform="translate(0 -54.95)"/><path class="cls-27" d="M344.93,265.37c-2.55,2.8-1.06,25.7-1.89,27.27s-19.91-1.6-19.91-1.6l-1.26,5.67s22.43,6.59,26.54,6.67S355,279.19,355,279.19a21,21,0,0,0-3.58-7.68A20.53,20.53,0,0,0,344.93,265.37Z" transform="translate(0 -54.95)"/></g><path class="cls-11" d="M340.68,334h70.07a0,0,0,0,1,0,0v4.46a6.79,6.79,0,0,1-6.79,6.79H347.47a6.79,6.79,0,0,1-6.79-6.79V334A0,0,0,0,1,340.68,334Z" transform="translate(751.42 624.31) rotate(180)"/><path class="cls-13" d="M340.68,334h70.07a0,0,0,0,1,0,0v4.46a6.79,6.79,0,0,1-6.79,6.79H347.47a6.79,6.79,0,0,1-6.79-6.79V334A0,0,0,0,1,340.68,334Z" transform="translate(751.42 624.31) rotate(180)"/><path class="cls-7" d="M387.76,306.14H349.18c-2,0-3.45,2.15-3,4.4l6.9,34.71h1.59l-5.88-30.42c-.43-2.25,1-4.38,3-4.38H387Z" transform="translate(0 -54.95)"/><path class="cls-7" d="M371.21,346.47V375.8a1.71,1.71,0,0,0,1.71,1.71h7.19a1.7,1.7,0,0,0,1.71-1.71V346.47Z" transform="translate(0 -54.95)"/><circle class="cls-7" cx="414.02" cy="359.24" r="3.12"/><circle class="cls-28" cx="414.02" cy="359.24" r="1.56"/><circle class="cls-7" cx="339.01" cy="359.24" r="3.12"/><circle class="cls-28" cx="339.01" cy="359.24" r="1.56"/><path class="cls-7" d="M373.94,400.52V367h5.16v33.52c20.08.51,32.28,7.53,34.72,9.07a1,1,0,0,1,.45.83v2.79a1,1,0,0,1-1,1h0a1,1,0,0,1-.86-.5l-1.19-2.09a112.92,112.92,0,0,0-32.14-5.32v5.51a1.28,1.28,0,0,1-1.27,1.28h-2.61a1.28,1.28,0,0,1-1.28-1.28v-5.51a112.93,112.93,0,0,0-32.14,5.32l-1.19,2.09a1,1,0,0,1-.86.5h0a1,1,0,0,1-1-1v-2.79a1,1,0,0,1,.45-.83C341.66,408.05,353.86,401,373.94,400.52Z" transform="translate(0 -54.95)"/><rect class="cls-7" x="374.82" y="411.08" width="3.38" height="6.23" transform="translate(753.03 773.43) rotate(180)"/><rect class="cls-10" x="371.21" y="291.52" width="10.6" height="12.19"/><path class="cls-7" d="M338.76,343.45V347a1.68,1.68,0,0,0,1.54,1.79h70.82a1.67,1.67,0,0,0,1.54-1.79v-3.5a1.68,1.68,0,0,0-1.54-1.79H340.3A1.68,1.68,0,0,0,338.76,343.45Z" transform="translate(0 -54.95)"/><path class="cls-7" d="M371.34,345.26h41.31s13.13-21.56,13.13-57.18V275a9.8,9.8,0,0,0-9.87-9.73H398.4a9.8,9.8,0,0,0-9.86,9.46C388,293.07,385.29,332.82,371.34,345.26Z" transform="translate(0 -54.95)"/><path class="cls-28" d="M380.43,345.26h30.36a3.14,3.14,0,0,0,2.79-1.67c3-5.69,12.2-25.67,12.2-55.51V275a9.8,9.8,0,0,0-9.86-9.73H400.78a9.8,9.8,0,0,0-9.86,9.46c-.45,16.4-2.69,49.87-13.11,65.69A3.11,3.11,0,0,0,380.43,345.26Z" transform="translate(0 -54.95)"/><path class="cls-10" d="M338.76,343.45V347a1.68,1.68,0,0,0,1.54,1.79H372a2.27,2.27,0,0,0,2.08-2.42v-2.24a2.27,2.27,0,0,0-2.08-2.42H340.3A1.68,1.68,0,0,0,338.76,343.45Z" transform="translate(0 -54.95)"/></g><g id="Character_1" data-name="Character 1"><g id="_Group_2" data-name="&lt;Group&gt;"><path class="cls-29" d="M150.11,268.63l-3,.72-.7-2.44a2.23,2.23,0,0,1-2.14,0,12.49,12.49,0,0,1-1.33-.79c-1.35-.89-3-2.11-3-2.11l2.34-4.77s1,.41,2.27,1c1.76.79,4,1.84,4.36,2.4a4.38,4.38,0,0,1,.33,2.72Z" transform="translate(0 -54.95)"/><path class="cls-10" d="M142.91,266.12c-1.35-.89-3-2.11-3-2.11l2.34-4.77s1,.41,2.27,1A8.46,8.46,0,0,1,142.91,266.12Z" transform="translate(0 -54.95)"/><polygon class="cls-29" points="191.96 323.83 186.95 325.8 183.34 319 180.06 312.81 185.62 309.48 188.98 317.07 191.96 323.83"/><polygon class="cls-10" points="188.98 317.07 183.34 319 180.06 312.81 185.62 309.48 188.98 317.07"/><path class="cls-7" d="M187.94,368.31,181.11,372s-25.79-45.35-29.76-45-41.59,24.36-53.07,15.5S98,307,98,307s23.74-6.78,26.31-1.57a38.69,38.69,0,0,1,1.7,4.77c.51,1.63.89,3,.89,3h0c.72-.29,24.17-9.91,34.63-4.75C172.16,313.68,187.94,368.31,187.94,368.31Z" transform="translate(0 -54.95)"/><path class="cls-30" d="M187.94,368.31,181.11,372s-25.79-45.35-29.76-45-41.59,24.36-53.07,15.5S98,307,98,307s23.74-6.78,26.31-1.57a38.69,38.69,0,0,1,1.7,4.77c.51,1.63.89,3,.89,3h0c.72-.29,24.17-9.91,34.63-4.75C172.16,313.68,187.94,368.31,187.94,368.31Z" transform="translate(0 -54.95)"/><polygon class="cls-29" points="150.86 350.34 145.51 349.73 145.48 342.18 145.47 335.25 151.94 334.94 151.37 343.1 150.86 350.34"/><polygon class="cls-10" points="151.35 343.26 145.46 342.32 145.46 335.32 151.94 334.98 151.35 343.26"/><polygon class="cls-11" points="177.77 314.77 187.76 309.77 188.8 314 181.24 317.9 177.77 314.77"/><path class="cls-7" d="M116,342.58s1.64-.19,26.88-4.86c0,0,.57,32.27,1.77,56.32l7.77.25s11.15-53.39,9.84-61.45-10.9-9.15-10.9-9.15S134.71,336.63,116,342.58Z" transform="translate(0 -54.95)"/><path class="cls-13" d="M116,342.58s1.64-.19,26.88-4.86c0,0,.57,32.27,1.77,56.32l7.77.25s11.15-53.39,9.84-61.45-10.9-9.15-10.9-9.15S134.71,336.63,116,342.58Z" transform="translate(0 -54.95)"/><path class="cls-31" d="M116,342.58s1.64-.19,26.88-4.86c0,0,.57,32.27,1.77,56.32l7.77.25s11.15-53.39,9.84-61.45-10.9-9.15-10.9-9.15S134.71,336.63,116,342.58Z" transform="translate(0 -54.95)"/><polygon class="cls-11" points="143.23 336.94 153.83 336.69 152.38 341.06 143.78 341.14 143.23 336.94"/><path class="cls-7" d="M201.94,387.68a7.19,7.19,0,0,0-2.59-.29h0s-3.24-1.35-7.15-7.79l-3.34.44a2.78,2.78,0,0,0-2.31,2.19,1.57,1.57,0,0,0,0,.48,18.94,18.94,0,0,0,.59,2.37,67.22,67.22,0,0,0,3,7.59l.55-.22L189,387.6c-.57-1.65,1.43-.26,2.49,1.34s2.56,3.14,6.13,1.79C201.74,389.13,203.39,388.27,201.94,387.68Z" transform="translate(0 -54.95)"/><path class="cls-29" d="M191.35,377.88s5.37,8.15,8,9.51c0,0-3,2.36-6.89-1.45-5.09-4.93-5.94-3.24-5.94-3.24a15.78,15.78,0,0,1,.13-2.89C187.05,377.94,191.35,377.88,191.35,377.88Z" transform="translate(0 -54.95)"/><path class="cls-7" d="M158.87,414.79a7.19,7.19,0,0,0-2.45-.9h0s-2.83-2.08-5.1-9.27l-3.35-.37a2.78,2.78,0,0,0-2.77,1.58,1.57,1.57,0,0,0-.14.45,19,19,0,0,0,0,2.44,67.22,67.22,0,0,0,1.15,8.09l.58-.09-.52-5.11c-.17-1.74,1.45.09,2.1,1.89s1.74,3.66,5.53,3.19C158.33,416.14,160.14,415.7,158.87,414.79Z" transform="translate(0 -54.95)"/><path class="cls-29" d="M150.9,402.75s3.28,9.19,5.52,11.13c0,0-3.43,1.59-6.35-3-3.78-6-5-4.56-5-4.56a15.79,15.79,0,0,1,.82-2.77C146.71,401.79,150.9,402.75,150.9,402.75Z" transform="translate(0 -54.95)"/><path class="cls-32" d="M144.76,249.27a3.4,3.4,0,0,0-2.71,1.27" transform="translate(0 -54.95)"/><path class="cls-16" d="M144,253.67a13.79,13.79,0,0,0,2.17,2.5,1.79,1.79,0,0,1-1.63.91Z" transform="translate(0 -54.95)"/><ellipse class="cls-7" cx="144.25" cy="251.85" rx="0.65" ry="0.97" transform="translate(-30.73 -34.66) rotate(-7.27)"/><path class="cls-7" d="M144,250.93l1.1-.6S144.63,251.38,144,250.93Z" transform="translate(0 -54.95)"/><path class="cls-29" d="M131.08,264.51a1.29,1.29,0,0,0,.22.14,9.73,9.73,0,0,0,3.49,1.5c3.65.66,6.09,0,7.61-1.67h0c2.13-2.56,2.48-6.92,1.91-12.13a19.66,19.66,0,0,0-1.44-6.05s0-.08,0-.09-.06-.15-.1-.22a7.15,7.15,0,0,0-5.46-4.1,14.5,14.5,0,0,0-3.11-.2C124,242.09,123,259.07,131.08,264.51Z" transform="translate(0 -54.95)"/><path class="cls-10" d="M131.3,264.66a9.49,9.49,0,0,0,3.48,1.36c3.65.66,6.08-.08,7.61-1.81a10.17,10.17,0,0,1-6.49-.21A5.31,5.31,0,0,0,131.3,264.66Z" transform="translate(0 -54.95)"/><path class="cls-7" d="M142.88,246.24s.91,7.12-5.72,10.53c0,0-2.55,7.57-6.83,7.88-5.83.43-11.39-7.63-9.78-16.19C122.65,237.35,139.24,235.65,142.88,246.24Z" transform="translate(0 -54.95)"/><path class="cls-29" d="M140.5,254.54c-.06-1.12-1-2.95-2.77-2.61s-2.56,4.82,1.9,5.6C140.27,257.64,140.62,256.87,140.5,254.54Z" transform="translate(0 -54.95)"/><path class="cls-7" d="M130.06,239.25s6.74-2.06,10.64.5c4.56,3,6.39,6.22,1.43,11.62,0,0-11.64-3.15-15.4-2.18a41.2,41.2,0,0,0-6.44,2.22C119.12,243.87,126.17,237.89,130.06,239.25Z" transform="translate(0 -54.95)"/><path class="cls-29" d="M136.46,265.47s-5,2.45-3.55,7.82L120.16,268s7-.44,6.61-5.34C126.78,262.64,134.07,259.84,136.46,265.47Z" transform="translate(0 -54.95)"/><path class="cls-7" d="M131.8,240.63s-3.8-11-12.44-9.07-8,11.16-1.79,14S132.39,247.36,131.8,240.63Z" transform="translate(0 -54.95)"/><path class="cls-7" d="M119.95,245.4s-7.62,0-6.68,6.49a5.51,5.51,0,0,1,2.37-3s-2.31,1.77,0,4.82c0,0-.92-2,2.23-3.38s11.77-1.26,10.17-5.52S119.95,245.4,119.95,245.4Z" transform="translate(0 -54.95)"/><path class="cls-32" d="M130.45,240.61s-1.84-13.34-12.6-10.65" transform="translate(0 -54.95)"/><path class="cls-32" d="M126.17,260.25s-7.85-4-6.46-10.25" transform="translate(0 -54.95)"/><path class="cls-32" d="M119.17,245.45s-6.88-.11-7.47,4.58" transform="translate(0 -54.95)"/><path class="cls-11" d="M121,267.61l3.11-2.24s10.24,1.39,10.34,7.91S121,267.61,121,267.61Z" transform="translate(0 -54.95)"/><path class="cls-7" d="M119.17,267.61s7.68-1.48,18.36,5.67c0,0,3.58,15.64-11.54,36.91l-28.66-1.8S105.09,277.07,119.17,267.61Z" transform="translate(0 -54.95)"/><path class="cls-31" d="M126.88,313.2l-9.75,4.9a22.08,22.08,0,0,1,8.87-7.91C126.49,311.82,126.88,313.2,126.88,313.2Z" transform="translate(0 -54.95)"/><path class="cls-23" d="M136.66,287.7a54.17,54.17,0,0,1-2,6.53,70.14,70.14,0,0,1-8.65,16l-28.66-1.8s7.76-31.32,21.84-40.78c0,0,7.67-1.47,18.36,5.67C137.53,273.28,138.79,278.79,136.66,287.7Z" transform="translate(0 -54.95)"/><path class="cls-10" d="M136.66,287.7a54.17,54.17,0,0,1-2,6.53,43,43,0,0,1,.06-7.08A5.83,5.83,0,0,1,136.66,287.7Z" transform="translate(0 -54.95)"/><path class="cls-7" d="M137.53,273.28s8.43,12.12,10.61,13.28-2-19-2-19l4.07-.88s7.21,24.18,2.37,28.34-17.86-7.91-17.86-7.91a45.22,45.22,0,0,1,0-8.31A9.3,9.3,0,0,1,137.53,273.28Z" transform="translate(0 -54.95)"/><path class="cls-23" d="M137.53,273.28s8.43,12.12,10.61,13.28-2-19-2-19l4.07-.88s7.21,24.18,2.37,28.34-17.86-7.91-17.86-7.91a45.22,45.22,0,0,1,0-8.31A9.3,9.3,0,0,1,137.53,273.28Z" transform="translate(0 -54.95)"/></g><path class="cls-11" d="M81.39,279.05h56.48a6.79,6.79,0,0,1,6.79,6.79v4.46a0,0,0,0,1,0,0H74.6a0,0,0,0,1,0,0v-4.46A6.79,6.79,0,0,1,81.39,279.05Z"/><path class="cls-13" d="M81.39,279.05h56.48a6.79,6.79,0,0,1,6.79,6.79v4.46a0,0,0,0,1,0,0H74.6a0,0,0,0,1,0,0v-4.46A6.79,6.79,0,0,1,81.39,279.05Z"/><path class="cls-7" d="M97.58,306.14h38.58c2,0,3.45,2.15,3,4.4l-6.9,34.71h-1.59l5.88-30.42c.43-2.25-1-4.38-3-4.38H98.37Z" transform="translate(0 -54.95)"/><path class="cls-7" d="M114.13,346.47V375.8a1.71,1.71,0,0,1-1.71,1.71h-7.19a1.7,1.7,0,0,1-1.71-1.71V346.47Z" transform="translate(0 -54.95)"/><circle class="cls-7" cx="71.32" cy="359.24" r="3.12"/><circle class="cls-28" cx="71.32" cy="359.24" r="1.56"/><circle class="cls-7" cx="146.33" cy="359.24" r="3.12"/><circle class="cls-28" cx="146.33" cy="359.24" r="1.56"/><path class="cls-7" d="M111.41,400.52V367h-5.16v33.52c-20.08.51-32.28,7.53-34.72,9.07a1,1,0,0,0-.45.83v2.79a1,1,0,0,0,1,1h0a1,1,0,0,0,.86-.5l1.19-2.09a112.92,112.92,0,0,1,32.14-5.32v5.51a1.28,1.28,0,0,0,1.28,1.28h2.61a1.28,1.28,0,0,0,1.27-1.28v-5.51a112.92,112.92,0,0,1,32.14,5.32l1.19,2.09a1,1,0,0,0,.86.5h0a1,1,0,0,0,1-1v-2.79a1,1,0,0,0-.45-.83C143.68,408.05,131.48,401,111.41,400.52Z" transform="translate(0 -54.95)"/><rect class="cls-7" x="107.14" y="356.13" width="3.38" height="6.23"/><rect class="cls-10" x="103.53" y="291.52" width="10.6" height="12.19"/><path class="cls-7" d="M146.58,343.45V347a1.68,1.68,0,0,1-1.54,1.79H74.22A1.67,1.67,0,0,1,72.69,347v-3.5a1.68,1.68,0,0,1,1.54-1.79H145A1.68,1.68,0,0,1,146.58,343.45Z" transform="translate(0 -54.95)"/><path class="cls-7" d="M114,345.26H72.69S59.56,323.7,59.56,288.07V275a9.8,9.8,0,0,1,9.87-9.73H86.94a9.8,9.8,0,0,1,9.86,9.46C97.31,293.07,100,332.82,114,345.26Z" transform="translate(0 -54.95)"/><path class="cls-28" d="M104.91,345.26H74.55a3.14,3.14,0,0,1-2.79-1.67c-3-5.69-12.2-25.67-12.2-55.51V275a9.8,9.8,0,0,1,9.86-9.73H84.56a9.8,9.8,0,0,1,9.86,9.46c.45,16.4,2.69,49.87,13.11,65.69A3.11,3.11,0,0,1,104.91,345.26Z" transform="translate(0 -54.95)"/><path class="cls-10" d="M146.58,343.45V347a1.68,1.68,0,0,1-1.54,1.79H113.31a2.27,2.27,0,0,1-2.08-2.42v-2.24a2.27,2.27,0,0,1,2.08-2.42H145A1.68,1.68,0,0,1,146.58,343.45Z" transform="translate(0 -54.95)"/></g></svg>