<svg xmlns="http://www.w3.org/2000/svg" viewBox="0 0 702.01 480.91"><defs><style>.cls-1,.cls-9{fill:#92e3a9;}.cls-2,.cls-7{fill:#fff;}.cls-2{opacity:0.7;}.cls-10,.cls-3,.cls-6{fill:none;}.cls-3,.cls-4,.cls-6,.cls-7,.cls-8,.cls-9{stroke:#263238;}.cls-10,.cls-3,.cls-4,.cls-6,.cls-7,.cls-8,.cls-9{stroke-linecap:round;stroke-linejoin:round;}.cls-4,.cls-5{fill:#263238;}.cls-6{stroke-width:0.5px;}.cls-8{fill:#949494;}.cls-10{stroke:#fff;}</style></defs><title>WANJILITO LORSHYYY CHRINYOOO</title><g id="Background_Simple" data-name="Background Simple"><path class="cls-1" d="M673.9,209.62c-37.33-32.45-82-54.48-126.28-75.75C498,110,446.15,86.21,393,71.52a403.67,403.67,0,0,0-54-11.18c-80.14-10.7-156.82,43.54-212.31,95.25A591.5,591.5,0,0,0,65.19,222.3c-13.67,17.36-30,35.93-35.75,58.17-6.77,26.13,7.38,48,21.49,68.81,11.31,16.66,23,32.38,37.23,46.79a303,303,0,0,0,117.35,73.82c82.13,28.1,173.3,17.44,257.66,7.26q7.14-.86,14.26-1.79C529.52,468.57,581.27,464,630.87,445c72-27.55,120.5-108.43,84.46-183C705.47,241.61,691,224.47,673.9,209.62Z" transform="translate(-27.7 -7)"/><path class="cls-2" d="M673.9,209.62c-37.33-32.45-82-54.48-126.28-75.75C498,110,446.15,86.21,393,71.52a403.67,403.67,0,0,0-54-11.18c-80.14-10.7-156.82,43.54-212.31,95.25A591.5,591.5,0,0,0,65.19,222.3c-13.67,17.36-30,35.93-35.75,58.17-6.77,26.13,7.38,48,21.49,68.81,11.31,16.66,23,32.38,37.23,46.79a303,303,0,0,0,117.35,73.82c82.13,28.1,173.3,17.44,257.66,7.26q7.14-.86,14.26-1.79C529.52,468.57,581.27,464,630.87,445c72-27.55,120.5-108.43,84.46-183C705.47,241.61,691,224.47,673.9,209.62Z" transform="translate(-27.7 -7)"/></g><g id="Floor"><line class="cls-3" x1="14.84" y1="455.12" x2="701.51" y2="455.12"/></g><g id="Clock"><circle class="cls-3" cx="81.62" cy="124.04" r="33.85"/><circle class="cls-3" cx="81.62" cy="124.04" r="29.94"/><circle class="cls-4" cx="81.62" cy="124.04" r="2.86"/><polyline class="cls-3" points="92.04 129.13 81.62 124.04 64.25 143.03"/></g><g id="Picture"><rect class="cls-3" x="600.59" y="89.05" width="84.56" height="105.34"/><rect class="cls-3" x="603.35" y="92.5" width="79.04" height="98.46"/><rect class="cls-3" x="626.62" y="121.48" width="32.5" height="40.48"/></g><g id="Lamps"><line class="cls-3" x1="363.9" y1="32.12" x2="363.9" y2="0.5"/><polygon class="cls-5" points="390 49.03 337.79 49.03 353.46 29.18 374.34 29.18 390 49.03"/><line class="cls-3" x1="648.38" y1="32.12" x2="648.38" y2="0.5"/><polygon class="cls-5" points="674.48 49.03 622.28 49.03 637.94 29.18 658.82 29.18 674.48 49.03"/><line class="cls-3" x1="79.42" y1="32.12" x2="79.42" y2="0.5"/><polygon class="cls-5" points="105.52 49.03 53.31 49.03 68.97 29.18 89.86 29.18 105.52 49.03"/></g><g id="Plant"><path class="cls-5" d="M99.38,321.27h0a.1.1,0,0,0-.18-.07,128.56,128.56,0,0,0-6.75,21.16,197.17,197.17,0,0,0-3.72,21.93l-.53,5.54c-.08.92-.18,1.85-.25,2.77l-.15,2.78c-.08,1.85-.19,3.71-.25,5.57l.05,5.57.06,2.78c0,.93.11,1.85.17,2.78.14,1.85.25,3.7.42,5.55.36,3.69.91,7.37,1.48,11a.1.1,0,0,0,.19,0h0c0-1.86-.09-3.7-.13-5.55s-.21-3.68-.19-5.53,0-3.69-.06-5.53l-.05-2.76,0-2.76,0-5.52.15-5.52.06-2.76c0-.92.1-1.84.15-2.76l.34-5.51a196,196,0,0,1,3.12-21.88A128,128,0,0,1,99.38,321.27Z" transform="translate(-27.7 -7)"/><path class="cls-5" d="M100.17,350.14a.1.1,0,0,0-.06-.12.1.1,0,0,0-.12.06,128.36,128.36,0,0,0-6.25,28.43c-.49,4.83-1,9.67-1.1,14.52a120.64,120.64,0,0,0,.52,14.57.1.1,0,0,0,.2,0c.56-4.84.9-9.66,1.24-14.48s.39-9.65.7-14.48a144.56,144.56,0,0,1,4.88-28.5Z" transform="translate(-27.7 -7)"/><path class="cls-5" d="M116.18,360.29a.1.1,0,0,0-.13,0,48.88,48.88,0,0,0-10.7,9.33,42.77,42.77,0,0,0-4.18,5.82L100.3,377l-.67,1.69a15.77,15.77,0,0,0-.59,1.71c-.17.58-.37,1.15-.52,1.73a68.83,68.83,0,0,0-2.21,14.12,81.59,81.59,0,0,0,.53,14.22.1.1,0,0,0,.09.08.1.1,0,0,0,.1-.09l1.22-14.07A125.09,125.09,0,0,1,100,382.53c.13-.57.29-1.12.43-1.68a14.77,14.77,0,0,1,.49-1.66l.57-1.63.74-1.54a41.69,41.69,0,0,1,3.83-5.82,48.32,48.32,0,0,1,10-9.78h0A.1.1,0,0,0,116.18,360.29Z" transform="translate(-27.7 -7)"/><path class="cls-5" d="M108.43,378.37a15.58,15.58,0,0,0-4.87,5.85,34.59,34.59,0,0,0-2.73,7.17c-.19.61-.34,1.23-.48,1.86l-.44,1.87a31.72,31.72,0,0,0-.47,3.8c0,1.28-.05,2.55,0,3.82a33.73,33.73,0,0,0,.5,3.8.11.11,0,0,0,.08.08.1.1,0,0,0,.12-.08,34.49,34.49,0,0,0,.67-3.74c.2-1.24.39-2.47.54-3.7s.34-2.45.44-3.69.26-2.47.53-3.67a33.32,33.32,0,0,1,2.09-7.1,15.7,15.7,0,0,1,4.09-6.1h0a.1.1,0,0,0-.11-.16Z" transform="translate(-27.7 -7)"/><path class="cls-5" d="M86,392.47c-.53-6.25-1.56-12.43-2.53-18.62s-2.05-12.35-3.19-18.5-2.4-12.28-3.72-18.39a.1.1,0,0,0-.19,0c1.07,6.16,2,12.34,3,18.52s1.82,12.36,2.6,18.56,1.36,12.41,2.14,18.6l2.29,18.6a.1.1,0,0,0,.19,0c.07-1.57.07-3.13.11-4.71s-.06-3.13-.09-4.7C86.49,398.72,86.22,395.6,86,392.47Z" transform="translate(-27.7 -7)"/><path class="cls-5" d="M82.24,392.38c-.33-2.47-.79-4.93-1.26-7.39l-.88-3.65c-.29-1.22-.56-2.44-.92-3.64a103.29,103.29,0,0,0-4.78-14.21l-.75-1.72-.83-1.68c-.53-1.13-1.17-2.21-1.78-3.3a27.84,27.84,0,0,0-4.51-6,.1.1,0,0,0-.14.14h0a27.55,27.55,0,0,1,4.13,6.11c.54,1.11,1.12,2.2,1.58,3.35l.73,1.7.65,1.74a102,102,0,0,1,4.16,14.21c.57,2.4.95,4.85,1.41,7.28l.58,3.66c.21,1.22.47,2.43.64,3.65.39,2.44.84,4.88,1.27,7.32s.83,4.9,1.34,7.35a.1.1,0,0,0,.1.08.1.1,0,0,0,.1-.1q0-3.74-.17-7.49C82.79,397.35,82.5,394.87,82.24,392.38Z" transform="translate(-27.7 -7)"/><path class="cls-5" d="M77.07,392.7c-1.16-3.28-2.5-6.49-4-9.63a86.35,86.35,0,0,0-5-9.12.1.1,0,0,0-.13,0,.1.1,0,0,0,0,.13,85.77,85.77,0,0,1,4.25,9.41c1.27,3.19,2.41,6.44,3.37,9.73s1.68,6.65,2.55,10,1.67,6.64,2.68,10a.1.1,0,0,0,.09.07.1.1,0,0,0,.1-.1,49.79,49.79,0,0,0-1-10.39A64.71,64.71,0,0,0,77.07,392.7Z" transform="translate(-27.7 -7)"/><path class="cls-5" d="M76.86,403.62a22.45,22.45,0,0,0-2.75-5.77,24,24,0,0,0-4-5A18.4,18.4,0,0,0,67.56,391a10.43,10.43,0,0,0-2.89-1.31.1.1,0,0,0-.06.18h0a14.37,14.37,0,0,1,4.79,3.72,22.71,22.71,0,0,1,3.34,5.05c.95,1.79,1.44,3.78,2.26,5.63.36.95.73,1.9,1.15,2.85A24,24,0,0,0,77.41,410h0a.1.1,0,0,0,.19,0,23.28,23.28,0,0,0-.12-3.19C77.33,405.7,77.11,404.66,76.86,403.62Z" transform="translate(-27.7 -7)"/><path class="cls-1" d="M77.24,345.91a17.78,17.78,0,0,1-12.6-13.39c-2.36-11,5.25-6.3-1.57-23.63s-5.25-21.26-2.89-26.25,3.68-3.41,5.78,3.15,9.71,16.8,12.6,36S77.24,345.91,77.24,345.91Z" transform="translate(-27.7 -7)"/><path class="cls-1" d="M97.46,327.27s-6.83-2.36-7.09-15.23,5-10.24,5.78-26.25,1.84-27.3,4.73-27.56S111.37,266.1,114,284s-3.41,29.66-8.66,34.91S97.46,327.27,97.46,327.27Z" transform="translate(-27.7 -7)"/><path class="cls-1" d="M73.57,361.4s-1.58-9.45-4.73-13.91-10-8.4-14.44-17.06-9.45-12.86-9.19-.53,5.78,18.64,12.6,22.84S73.57,361.4,73.57,361.4Z" transform="translate(-27.7 -7)"/><path class="cls-1" d="M70.68,377.67s-6.3-12.08-15.49-21-16.54-13.39-13.91-8.93,5.78,4.2,10.24,12.08,3.15,13.65,9.45,18.11S70.68,377.67,70.68,377.67Z" transform="translate(-27.7 -7)"/><path class="cls-1" d="M69.89,393.16c-.26-.79-.53-6.56-9.45-11.29s-17.33-2.89-16.28-.53,6.56,6.3,12.08,8.66S69.89,393.16,69.89,393.16Z" transform="translate(-27.7 -7)"/><path class="cls-1" d="M96.93,361.92s-3.94-5-1.84-15.49,6.83-7.88,12.08-13.39,4.2-6.3,9.45-12.08,10-8.93,12.08-6.56-1,9.71-4.2,13.91-8.14,6.3-10.5,11.55-1.31,13.65-7.35,17.59S96.93,361.92,96.93,361.92Z" transform="translate(-27.7 -7)"/><path class="cls-1" d="M110.06,364.81s9.45-10.76,16.28-18.64,9.45-13.91,9.71-8.66,2.36,9.45-3.15,16.28S110.06,364.81,110.06,364.81Z" transform="translate(-27.7 -7)"/><path class="cls-1" d="M105.07,382.13s-.26-4.2,14.7-13.91,21.26-11.55,19.69-7.61-8.14,7.88-15.23,15S105.07,382.13,105.07,382.13Z" transform="translate(-27.7 -7)"/><path class="cls-6" d="M77.87,344.79S74.35,326,70.68,312.57s-6-21.53-6-21.53" transform="translate(-27.7 -7)"/><path class="cls-6" d="M96.85,327.47s6.38-20.41,8.48-32.75-.26-21.53-1.31-27" transform="translate(-27.7 -7)"/><path class="cls-6" d="M72.74,361a99,99,0,0,0-9.67-13.78c-5.78-6.83-10.24-10.5-12.86-17.06" transform="translate(-27.7 -7)"/><path class="cls-6" d="M96.93,361.92s2.1-12.6,7.09-19.16,15-16.8,18.9-23.36" transform="translate(-27.7 -7)"/><path class="cls-6" d="M69.27,392.87s-8.83-5.75-15.13-8.9" transform="translate(-27.7 -7)"/><polygon class="cls-4" points="73.16 455.12 48.44 455.12 43.14 396.43 78.46 396.43 73.16 455.12"/></g><g id="Board"><rect class="cls-4" x="228.62" y="98.64" width="247.36" height="169.7"/><rect class="cls-7" x="232.55" y="102.73" width="239.51" height="161.51"/><rect class="cls-1" x="318.32" y="143.64" width="35.2" height="28.22"/><rect class="cls-1" x="354.74" y="172.32" width="35.2" height="28.22"/><rect class="cls-1" x="318.32" y="228.76" width="35.2" height="28.22"/><rect class="cls-1" x="391.61" y="115.87" width="35.2" height="28.22"/><line class="cls-3" x1="245.18" y1="119.97" x2="245.18" y2="256.99"/><line class="cls-3" x1="281.45" y1="119.97" x2="281.45" y2="256.99"/><line class="cls-3" x1="317.71" y1="119.97" x2="317.71" y2="256.99"/><line class="cls-3" x1="353.98" y1="119.97" x2="353.98" y2="256.99"/><line class="cls-3" x1="390.24" y1="119.97" x2="390.24" y2="256.99"/><line class="cls-3" x1="426.51" y1="119.97" x2="426.51" y2="256.99"/><line class="cls-3" x1="462.78" y1="119.97" x2="462.78" y2="256.99"/><line class="cls-3" x1="246.09" y1="143.64" x2="463.23" y2="143.64"/><line class="cls-3" x1="246.09" y1="171.86" x2="463.23" y2="171.86"/><line class="cls-3" x1="246.09" y1="200.08" x2="463.23" y2="200.08"/><line class="cls-3" x1="246.09" y1="228.31" x2="463.23" y2="228.31"/><line class="cls-3" x1="323.48" y1="148.64" x2="345.33" y2="148.64"/><line class="cls-3" x1="323.48" y1="152.29" x2="345.33" y2="152.29"/><line class="cls-3" x1="323.48" y1="155.93" x2="345.33" y2="155.93"/><line class="cls-3" x1="323.48" y1="159.57" x2="345.33" y2="159.57"/><line class="cls-3" x1="323.48" y1="163.21" x2="345.33" y2="163.21"/><line class="cls-3" x1="361.72" y1="179.14" x2="383.57" y2="179.14"/><line class="cls-3" x1="361.72" y1="182.79" x2="383.57" y2="182.79"/><line class="cls-3" x1="361.72" y1="186.43" x2="383.57" y2="186.43"/><line class="cls-3" x1="361.72" y1="190.07" x2="383.57" y2="190.07"/><line class="cls-3" x1="361.72" y1="193.71" x2="383.57" y2="193.71"/><line class="cls-3" x1="324.39" y1="235.14" x2="346.24" y2="235.14"/><line class="cls-3" x1="324.39" y1="238.78" x2="346.24" y2="238.78"/><line class="cls-3" x1="324.39" y1="242.42" x2="346.24" y2="242.42"/><line class="cls-3" x1="324.39" y1="246.06" x2="346.24" y2="246.06"/><line class="cls-3" x1="324.39" y1="249.7" x2="346.24" y2="249.7"/><line class="cls-3" x1="396.77" y1="123.61" x2="418.62" y2="123.61"/><line class="cls-3" x1="396.77" y1="127.25" x2="418.62" y2="127.25"/><line class="cls-3" x1="396.77" y1="130.89" x2="418.62" y2="130.89"/><line class="cls-3" x1="396.77" y1="134.53" x2="418.62" y2="134.53"/><line class="cls-3" x1="396.77" y1="138.17" x2="418.62" y2="138.17"/></g><g id="Chair_2" data-name="Chair 2"><rect class="cls-4" x="674.81" y="340.5" width="10.67" height="18.95" transform="translate(1332.6 692.94) rotate(180)"/><rect class="cls-8" x="654.39" y="264.92" width="53.17" height="81.34" rx="15.63" ry="15.63" transform="translate(1334.24 604.18) rotate(180)"/><circle class="cls-4" cx="673.73" cy="451.72" r="4.51"/><circle class="cls-4" cx="585.52" cy="451.72" r="4.51"/><ellipse class="cls-4" cx="629.53" cy="451.72" rx="2.1" ry="4.51"/><polygon class="cls-4" points="625.42 427.22 625.42 362.5 634.28 362.5 634.28 427.49 678.01 444.78 678.01 449.13 671.66 449.13 671.66 445.45 629.51 436.76 587.37 445.45 587.37 449.13 581.01 449.13 581.01 444.78 625.42 427.22"/><polygon class="cls-4" points="631.74 449.12 627.31 449.12 626.36 428.11 632.69 428.11 631.74 449.12"/><rect class="cls-4" x="646.29" y="367.03" width="22.53" height="13.38" transform="translate(1287.41 740.44) rotate(180)"/><rect class="cls-8" x="618.12" y="354.71" width="80.98" height="17.25" rx="5.91" ry="5.91" transform="translate(1289.53 719.67) rotate(180)"/></g><g id="Character_4" data-name="Character 4"><path class="cls-7" d="M589.72,440.64a34,34,0,0,1-9.55,8.9c-5.65,3.26-14.33,4.56-14.33,6.3s.65,4.78,7.17,5.65,34.75,1.3,38.44.43.22-19.11.22-19.11S594.49,443.68,589.72,440.64Z" transform="translate(-27.7 -7)"/><path class="cls-7" d="M573,461.49c6.51.87,34.75,1.3,38.44.43.94-.22,1.42-1.58,1.6-3.47-7.87.24-23.22.48-32.44,0-12.38-.65-14.77-2.61-14.77-2.61C565.83,457.58,566.48,460.62,573,461.49Z" transform="translate(-27.7 -7)"/><path class="cls-4" d="M570.17,270.82s1.74,25.62,3.26,36.48,7.17,55.16,10.86,66.67,7.6,61,7.6,61-4.13,1.52-3.91,3.26.43,4.34.43,4.34,8.47,4.56,13.46,4.56S613.17,445,613.17,445s-1.3-19.33-2-34.53-6.95-79.91-6.95-79.91L603,266Z" transform="translate(-27.7 -7)"/><path class="cls-7" d="M606.87,445.42s.43,4.13-10.42,7.82-12.16,7.6-10.86,10.86,23.89,3.26,32.36,2,12.81-1.74,13.46-3.47-1.74-15-1.74-15Z" transform="translate(-27.7 -7)"/><path class="cls-7" d="M631.41,462.58a7.41,7.41,0,0,0,.06-2.33c-3,.55-7,1.3-12.22,2.33-11.6,2.26-26.9.93-34,.09a5.72,5.72,0,0,0,.37,1.43c1.3,3.26,23.89,3.26,32.36,2S630.76,464.31,631.41,462.58Z" transform="translate(-27.7 -7)"/><path class="cls-4" d="M578,277.12l6.3,7.6s4.78,52.55,6.51,66.23,10,62.54,10,62.54L606,439.56l-1.3,3.26a9.76,9.76,0,0,0,0,4.34c.22.87-.22,1.52,8,2.82a60.21,60.21,0,0,0,16.5,0,17.39,17.39,0,0,0,1.09-6.08,37.15,37.15,0,0,0-.65-8.47c-.65-3.47,0-21.93-4.78-41.69s-8.25-42.56-8.25-50.16.22-52.12.43-53,4.34-3.69,4.56-11.73-.87-11.08-.87-11.08H578.42" transform="translate(-27.7 -7)"/><path class="cls-9" d="M577.77,169.63S568,193.95,567.35,210s0,38.87.22,39.74-2.39,19.11-.87,21.93a3.49,3.49,0,0,0,4.13,2s47.56.65,49.73.22,2.61-3.26,3-5.43-1.3-28-1.3-31.92,1.3-47.56-4.13-59.72-18.89-22.15-20.63-22.58S581.68,158.55,577.77,169.63Z" transform="translate(-27.7 -7)"/><path class="cls-7" d="M554,121.8s-1.66,8-1.16,8.64,2.16,3.82,2.16,3.82l-4.32,11.8,5.15,1.5,7.31,12.63,11.3-3.16,3.32,15.12s-.5,5.48,2,4,4.65-3.16,9.47-11.46,9.64-9.64,9.64-9.64-6-8-7.14-10.47-.5-6.65-2.49-16.78-8.81-12.29-18.11-12.29S554.85,117.31,554,121.8Z" transform="translate(-27.7 -7)"/><path class="cls-4" d="M558.67,112.33s-7.48,1.66-8.81,3.16.66,6.15,2.49,7.14S566,121,565.81,121.8s-2,3,0,3.82,10,3,10,3l-2,15.28s-9.8-.5-12.13,0-5.81,3.66-5.81,3.66S560.16,160.68,561,162s3.16,1,5.81,0,13.46-8.81,14.62-9.8-1.33-10.8-1.33-10.8.33-8.14.33-9.8,2.16-1.66,3.65-.5,2,5.65,1.66,7.31a7.75,7.75,0,0,1-2.16,3.32s6.31,4.82,7.64,4.82a1.71,1.71,0,0,0,1.83-1.33c.17-.5-.17-14.79-.17-14.79s.33-13.62-1.5-17.94-10.47-5.48-15.95-4.65S558.67,112.33,558.67,112.33Z" transform="translate(-27.7 -7)"/><ellipse class="cls-3" cx="559.08" cy="135.09" rx="0.91" ry="1.66" transform="translate(-42.67 92.25) rotate(-10.01)"/><path class="cls-3" d="M556.34,131.6a3.39,3.39,0,0,1,4.65-.33" transform="translate(-27.7 -7)"/><path class="cls-10" d="M561.16,149.88s3.82-1.16,5-3.82" transform="translate(-27.7 -7)"/><path class="cls-7" d="M605.79,225s-9.34,41.48-10.21,43.65S591,279.51,591,279.51l10.21,8.9s1.52-2.39,2.82-8a67.84,67.84,0,0,0,1.52-11.08s14.77-31.49,17.16-35.83.65-7.6.65-8.69S605.79,225,605.79,225Z" transform="translate(-27.7 -7)"/><path class="cls-9" d="M599.05,177.66s-2.39,7.6-2.17,11.29,5.21,25.84,5.21,25.84-2.61,2.39-1.74,3.26a21.73,21.73,0,0,1,2.17,3s-2,1.52,0,3.69,1.09,3.26,10.21,3,11.94-.65,13-2.39,2.39-3,1.3-4.78L626,218.92a8.31,8.31,0,0,0,.87-4.34c-.22-2.39-1.74-5.21-1.74-6.3s-.22-15.85-3-27.36-14.77-17.81-16.94-18" transform="translate(-27.7 -7)"/></g><g id="Character_3" data-name="Character 3"><path class="cls-7" d="M471.09,287.13s.34,13.62.34,14.14-1.7,10.22-.85,14.82,7.66,10.9,7.66,10.9l.68-41Z" transform="translate(-27.7 -7)"/><path class="cls-9" d="M491.64,193.2s-20,24.35-20.61,27.06-5.83,68.69-5.83,69.32,8.12,3.75,11.45,3.75h4.79s-5.62-45.38-3.12-62.24,8.53-21.65,13.11-28.1S496,191.54,491.64,193.2Z" transform="translate(-27.7 -7)"/><path class="cls-4" d="M492.69,441.74s-5.2,7.49-8.12,9.16-12.49,5.62-12.91,6.66-.42,3.54.42,3.75,15.2-.21,23.94-.21,14.57.42,15.61-.62.21-14.57-.83-17.28l-1-2.71-15.61-.42Z" transform="translate(-27.7 -7)"/><path class="cls-7" d="M512,459.22H471.39c0,1,.18,2,.69,2.08.83.21,15.2-.21,23.94-.21s14.57.42,15.61-.62A2.56,2.56,0,0,0,512,459.22Z" transform="translate(-27.7 -7)"/><path class="cls-7" d="M472.7,284.79l2.71,12.7s-.42,33.1,2.91,47.46a141.91,141.91,0,0,1,3.33,28.31s4.58,22.69,6.24,29.14,3.54,33.72,3.54,33.72-1.67,1.25-1.46,2.08.83,6,.83,6,.83,0,7.49.62a54.08,54.08,0,0,0,10.2.21l2.29-1.87a58.48,58.48,0,0,0,0-6.66c-.21-3.75-1.46-6.66-1.46-9.16s-1.46-57.45-1.46-57.45l.62-86.18-36.43-2.08Z" transform="translate(-27.7 -7)"/><path class="cls-4" d="M513.08,441.32a40.34,40.34,0,0,1-3.75,7.08c-1.87,2.5-9.58,6.87-12.7,8.53a6.24,6.24,0,0,0-3.12,5.2s7.08.21,30.39-.62l10-.42a31.25,31.25,0,0,0-.21-5.83c-.42-3.12-.83-11-.83-11Z" transform="translate(-27.7 -7)"/><path class="cls-7" d="M523.91,461.51l10-.42a29.94,29.94,0,0,0,0-3.37l-39.84,2a6.66,6.66,0,0,0-.55,2.38S500.6,462.35,523.91,461.51Z" transform="translate(-27.7 -7)"/><path class="cls-7" d="M486,299.57l7.91,7.7s3.12,30,6.24,47.67,11.24,63.28,11.24,67,1.67,13.32,1.67,13.32-.62.21-.83,1.67S512,444,512,444a34.26,34.26,0,0,0,9.78,2.91,83.23,83.23,0,0,0,11.66-.21,63.86,63.86,0,0,0,.83-6.45c0-1.67-.62-9-.21-11.86s3.33-17.69,2.5-33.93-5.83-41.42-5.83-41.42l1.67-36.64a54.39,54.39,0,0,0,2.08-20.4c-1-11.24-3.54-15.61-3.54-15.61l-48.71.21" transform="translate(-27.7 -7)"/><path class="cls-4" d="M491.64,193.2S475,213.81,473.33,223s-4,61-4,63.07,3.33,2.91,7.29,3.54a95.34,95.34,0,0,0,17.07,1c6.87-.21,13.95-2.5,15-3.75s-1-38.09,2.5-58.28,7.08-31,5-35S498.72,189,491.64,193.2Z" transform="translate(-27.7 -7)"/><path class="cls-9" d="M508.5,192.16S496,214,493.73,229.42s-.62,66.82-.62,66.82,0,2.08,9.58,1.87,22.48-2.71,26-4.58,7.49-3.33,7.7-4.37-1.87-4.79-1.87-7.91-1.46-16-1.46-16-.42-56.83-3.54-64.94S514.13,189.87,508.5,192.16Z" transform="translate(-27.7 -7)"/><path class="cls-7" d="M478.11,153.24s-1.67,6.66-1,8.74a13.15,13.15,0,0,1,.62,5.2c-.21.83-5,6.24-4,7.29a32,32,0,0,0,3.54,2.71s1,11,2.91,11.66,8.74-.62,8.74-.62,2.29,8.53,2.29,10-7.08,17.07-3.12,15.82,19.77-24.15,19.77-24.15-.21-29.35-4.79-36.84S484.78,146.79,478.11,153.24Z" transform="translate(-27.7 -7)"/><ellipse class="cls-5" cx="454.27" cy="160.08" rx="0.94" ry="1.98"/><path class="cls-3" d="M479.78,162.81a2.88,2.88,0,0,1,4.37.62" transform="translate(-27.7 -7)"/><path class="cls-3" d="M480.2,178.84a12.7,12.7,0,0,0,6-2.08" transform="translate(-27.7 -7)"/><path class="cls-4" d="M485.61,138s-10.2,4-11.24,7.7-1.87,8.12-1.87,8.12l9.16,1.87,7.91.62s-.21,1.87,2.08,6.24a75.3,75.3,0,0,1,3.33,7.08s-.62,12.28-1.25,15.82a58.79,58.79,0,0,1-2.08,7.7s5.2,1,14.78,2.08S527.86,194,527.86,194s2.5-4.16,2.29-12.49-4.16-20.19-4.58-25,.83-8.12-6.66-13.95S498.1,134.71,485.61,138Z" transform="translate(-27.7 -7)"/><path class="cls-7" d="M467.17,261.61a10.52,10.52,0,0,1-1.57-.11l.47-3c1,.15,3.26.15,3.95-.84.94-1.34.21-8.78-.75-10-.36-.42-2.07-.42-3.3-.13l-.68-2.92c.74-.17,4.52-.94,6.27,1.11s2.8,11,.92,13.7C471.18,261.27,468.78,261.61,467.17,261.61Z" transform="translate(-27.7 -7)"/><rect class="cls-7" x="421.69" y="234.91" width="17.9" height="23.31"/><path class="cls-9" d="M514.13,205.28s-3.54,7.91-3.75,11.86,4.37,30.81,4.37,30.81-15,3.75-19.15,3.75a49.9,49.9,0,0,1-6.87-.42s-5.62-3.75-7.29-4.79-2.91-.42-5.83-2.71-5.2-2.5-5.41-1.25-.21,2.08,1.87,3.12a20,20,0,0,1,3.75,2.5s-5,1-6.45,1.25-1.87,2.29-1,3.33,2.29,2.5,2.29,2.5-.21,5,2.5,6,10.2.83,10.2.83,7.91.62,9.16.62,17.07,4,28.31,4,14.57.62,15.2-1.87-.42-39.34-2.5-50.58-6.87-17.48-10.2-17.9" transform="translate(-27.7 -7)"/><path class="cls-7" d="M502.52,250.7a45.31,45.31,0,0,1-6.92,1,49.9,49.9,0,0,1-6.87-.42s-5.62-3.75-7.29-4.79-2.91-.42-5.83-2.71-5.2-2.5-5.41-1.25-.21,2.08,1.87,3.12a20,20,0,0,1,3.75,2.5s-5,1-6.45,1.25-1.87,2.29-1,3.33,2.29,2.5,2.29,2.5-.21,5,2.5,6,10.2.83,10.2.83,7.91.62,9.16.62c.66,0,5.36,1.1,11.31,2.14C501.64,259.82,501.92,254.35,502.52,250.7Z" transform="translate(-27.7 -7)"/></g><g id="Character_2" data-name="Character 2"><path class="cls-7" d="M264.59,446.37a53.23,53.23,0,0,1-4,12.76c-3,6.38-3.19,8.77,3.59,9.77s10.16-.6,11.56-4.19,2-12.16,2.39-14.15S273.17,442.38,264.59,446.37Z" transform="translate(-27.7 -7)"/><path class="cls-7" d="M275.76,461.72c-1.4,2.59-3.19,5.78-10.36,5.18-4.08-.34-5.77-2.09-6.47-3.55-.92,3.3.27,4.8,5.28,5.54,6.78,1,10.16-.6,11.56-4.19a27.84,27.84,0,0,0,1.21-5.18C276.6,460.17,276.19,460.91,275.76,461.72Z" transform="translate(-27.7 -7)"/><path class="cls-7" d="M321,444.58a40.14,40.14,0,0,0,10.56,6.78c6.38,2.79,11,4.38,11,5.78a12.29,12.29,0,0,1-1.4,4,55.14,55.14,0,0,1-13.55,2c-6.78,0-12.36-.6-17.34-.8s-10.76.4-11.16-3.19.4-10.36.4-10.36S317,443.38,321,444.58Z" transform="translate(-27.7 -7)"/><path class="cls-7" d="M341.13,461.12s.35-.65.7-1.47a69.88,69.88,0,0,1-9.87,1.07c-7.18.2-9.77-.8-17.94-1.79a69.37,69.37,0,0,0-15,0c0,.05,0,.12,0,.17.4,3.59,6.18,3,11.16,3.19s10.56.8,17.34.8A55.14,55.14,0,0,0,341.13,461.12Z" transform="translate(-27.7 -7)"/><path class="cls-4" d="M322.21,288.28s1,30.15-.82,56.81-4.31,65.83-3.28,71.37S320,439.84,320,439.84l1.85,2.26,1,3.69s-1,1-7.38,2.87-15.59,2.26-15.59,2.26-.41-6.15-.41-7.79.41-5.33.41-5.33-3.49-43.27-2.87-52.09-.62-44.09-.62-44.09l-1-12.72s-8.2,33-8.61,37.12-6.15,45.94-6.15,48.4-2.46,25.84-2.46,25.84a11.87,11.87,0,0,1,1.64,4.51c.2,2.26-1.44,8-1.44,8a14.78,14.78,0,0,0-5.95-2.26l-8.41-.62s-1.64-11.9-1.64-14.36V422.82s-.82-29.33.62-40.61.62-46.14-.21-60.91-2.87-27.89-1.44-31.17a42.35,42.35,0,0,0,2.26-7.38A227.86,227.86,0,0,0,295.34,287c17,1,25.64-2.05,25.64-2.05Z" transform="translate(-27.7 -7)"/><line class="cls-10" x1="267.65" y1="321.89" x2="272.18" y2="308.62"/><path class="cls-7" d="M295,293.75s3.67.39,11.58-.77,11.2-2.9,11.2-2.9-5.21-100.58-5.21-101.54a6.08,6.08,0,0,0-5.41-6.47c-5.41-1-12.55,1.35-14.09,7.34S295,293.75,295,293.75Z" transform="translate(-27.7 -7)"/><path class="cls-7" d="M317.56,299s-.58,6,0,6.37,6.18-1.74,9.85-3.28,2.45-.93,3.64-4.42.8-3.49-2.87-2.52S317.56,299,317.56,299Z" transform="translate(-27.7 -7)"/><path class="cls-9" d="M309.9,200.56l4.32,58.21,2.23,42s.74,1.34,1.94,1,11.46-2.68,12.65-4.17,1.64-5.36,1.64-6-3.13-37.22-3.13-37.22l8-10.72s-6.1-33.5-7.59-40.2-1.49-10.27-3.87-13.25-16.08-9.68-16.08-9.68Z" transform="translate(-27.7 -7)"/><path class="cls-7" d="M308.27,177s5.51,5.81,5.36,8.78-3.72,14.74-3.72,14.74l-2.23-17.27S306.48,179,308.27,177Z" transform="translate(-27.7 -7)"/><path class="cls-7" d="M290.12,164.64l-.47,12.17s4,10,6.55,13,7.15,8,7.15,8l5.06-10.57.15-5.81,2.23-5.51a24.63,24.63,0,0,1-9.68-4.62c-4.76-3.72-9.68-8.19-10.12-8.34S290.12,164.64,290.12,164.64Z" transform="translate(-27.7 -7)"/><path class="cls-4" d="M293.12,169s1.29,4.73,9.46,10.32a24,24,0,0,0,6,3.08l0-.92,2.23-5.51a24.63,24.63,0,0,1-9.68-4.62c-1.21-.94-2.42-1.94-3.58-2.89l-1.56-.47Z" transform="translate(-27.7 -7)"/><path class="cls-7" d="M323.12,138.6s-.54,12.49-.89,16.77-.54,8-2.5,12-4.1,10-7.49,10.52a19.29,19.29,0,0,1-12.49-2.32c-4.1-2.5-9.45-9.45-9.63-10.88a10.27,10.27,0,0,0-.54-2.32s-2.14-12.84-2.14-18.55.54-10.52,9.63-13.73S323.12,138.6,323.12,138.6Z" transform="translate(-27.7 -7)"/><path class="cls-4" d="M293.33,138.6s5.53,1.43,2.68,3.92-5.53,5.35-5.53,5.35.89,3.57.54,5-2.14,2.5-3.39,1.07-2.32-2.5-2.32-2.5-3.39-10.7-4.1-13.73-1.43-6.24,3-9.28a45.17,45.17,0,0,1,5.35-3.39,30.11,30.11,0,0,1,17.84-4.1c10.35.89,15,6.78,15,6.78s8.2-2.14,7.67,3.75-6.42,9.81-9.63,9.45-20.16-8.92-23.54-7.49S291,138.06,293.33,138.6Z" transform="translate(-27.7 -7)"/><path class="cls-3" d="M313.85,151.8s2.5,8,1.78,8.74-3.57,1.25-3.57,1.25" transform="translate(-27.7 -7)"/><path class="cls-3" d="M315.45,165.18s-5.71,1.61-10-1.07" transform="translate(-27.7 -7)"/><path class="cls-3" d="M311.56,146.8s-7.52-.71-11.45-.71-5.35-.36-5.53.71-.54,6.78,2.5,8.74,8.56,1.07,10.88.54,3-4.46,3.21-5.71S311.56,146.8,311.56,146.8Z" transform="translate(-27.7 -7)"/><path class="cls-3" d="M313.77,146.82s6-.38,9.09-.22,4.25-.12,4.39.91.42,6.55-2,8.31-6.8.68-8.64.07-2.41-4.42-2.55-5.63S313.77,146.82,313.77,146.82Z" transform="translate(-27.7 -7)"/><line class="cls-3" x1="266.89" y1="139.8" x2="257.61" y2="144.44"/><line class="cls-3" x1="283.86" y1="139.8" x2="286.26" y2="139.8"/><path class="cls-7" d="M290.48,155.9s-4.1-5.17-7-4.46-.36,8.2,2,9.45,4.82-.36,4.82-.36" transform="translate(-27.7 -7)"/><ellipse class="cls-5" cx="276.18" cy="144.58" rx="0.97" ry="1.86"/><ellipse class="cls-5" cx="290.47" cy="144.58" rx="0.97" ry="1.86"/><path class="cls-3" d="M299.63,145a16.52,16.52,0,0,1,9.08.3" transform="translate(-27.7 -7)"/><path class="cls-3" d="M316,145.4a8.75,8.75,0,0,1,5.51-.6" transform="translate(-27.7 -7)"/><path class="cls-7" d="M299.78,303.21l.21,3.67s-8.49,1.74-20.27-1-22.39-10-23.55-11.58,1-8.11,1-8.11-1.54-.39,1.16.58,13.32,10.23,27.8,12.74S300,301.09,299.78,303.21Z" transform="translate(-27.7 -7)"/><path class="cls-9" d="M288.76,173.09s7.29,10.12,10.72,14.74,2.53,10.27,2.08,11.76-1,4-1,4V297.7s1.34,5.06-.74,5.51-17.27-.3-28.43-6.1-15-9.83-15-9.83l2.83-22.93,1.19-12.8-18.46.09s10.86-52.2,12.06-55,30.52-17.72,30.52-17.72S284.89,174.06,288.76,173.09Z" transform="translate(-27.7 -7)"/><line class="cls-3" x1="298.01" y1="208.32" x2="297.76" y2="205.83"/><line class="cls-3" x1="301.86" y1="247.45" x2="298.37" y2="212.01"/><line class="cls-7" x1="232.63" y1="244.55" x2="236.11" y2="211.3"/><path class="cls-7" d="M255.33,244.66a21.09,21.09,0,0,0-7.83,0c-4.51.8-6.63,9.16-6.9,12.08s1.59,8,5,9.42,5.18,1.33,8.76-.8,3.18-11.94,3.05-15.26A9.08,9.08,0,0,0,255.33,244.66Z" transform="translate(-27.7 -7)"/><path class="cls-7" d="M264.14,235.06s1.33-8.89,1.46-11.81-.27-6.5.27-7.7,2.39-.13,3.05.66,1.19,4.91,1.06,6.5a17.86,17.86,0,0,0,0,2.92s10.22-7.56,11.41-9.16,3.58-2.79,4.38-1.73-.13,2-1.06,2.92-5.71,6.37-6.5,7a3.67,3.67,0,0,0-1.06,1.72,4.53,4.53,0,0,0,2-.27c1.19-.4,9.42-4.51,10.22-4.51a1.48,1.48,0,0,1,1.19,1.86c-.27.8-10.35,6.9-10.75,7s-.8,1.06-.13,1.19,8.89-1.19,10-.66a1.26,1.26,0,0,1,.27,2.12c-.53.4-10.35,2.12-10.35,2.12l4.51.93c1.33.27,3.58.27,3.58,1.06s-.53,1.19-1.46,1.19h-6.9c-1.46,0-4.38,1.19-6.77,2.26s-3.45,1.46-3.45,1.46-6.5,11.81-8.89,16.06a11.39,11.39,0,0,1-9.42,6.1c-3.45.27-7-6-6.37-9s6.24-9.82,11.15-12.34S261.88,238,264.14,235.06Z" transform="translate(-27.7 -7)"/><path class="cls-7" d="M343.24,246.2s-3.79-4.93-6.45-5.12-7.4,8.35-7.4,12,.19,10.44,1.71,11.38,4.36-.76,6.07-3S343.24,246.2,343.24,246.2Z" transform="translate(-27.7 -7)"/><path class="cls-7" d="M386.74,222.8s.22-4.06-.55-3.84-1.32.77-1.1,2.63a26.53,26.53,0,0,1-.66,5.92Z" transform="translate(-27.7 -7)"/><path class="cls-7" d="M339.36,244.84s-6,11-5.81,13.93,2.74,3.95,7.35,2.63,36.74-18.86,38.28-20.29,6.8-12.39,8.55-14.37,1.54-6.91,1.54-7.79-1.54-.55-1.54.55-3.73,8.23-4.28,8.44-5.48,2.63-5.48,2.63,2.52-4.94,3.4-6.58,1.64-3.51-.22-2.85-4.83,5.7-5.92,8.44-3,6.36-2.63,8.12l.33,1.75s-11.08,2.52-17.66,2.85S339.69,243.74,339.36,244.84Z" transform="translate(-27.7 -7)"/><path class="cls-7" d="M383.78,233.22s5.81-6.69,6.58-7.9,1.75-3.07,1.54-4.5-1.21.33-2,1.54-2.3,2.3-3.18,4.28a4.87,4.87,0,0,1-3,2.52Z" transform="translate(-27.7 -7)"/><path class="cls-7" d="M381.7,237.27s3.29-6.8,4.17-8.66,1.1-5,1.21-7-1.54-.66-1.75,1-1.54,6.58-1.54,6.58-7.13,5-7.13,6.36a30.26,30.26,0,0,0,.22,3.07" transform="translate(-27.7 -7)"/></g><g id="Chair_1" data-name="Chair 1"><rect class="cls-4" x="119.79" y="333.5" width="10.67" height="18.95"/><rect class="cls-8" x="97.72" y="257.92" width="53.17" height="81.34" rx="15.63" ry="15.63"/><circle class="cls-4" cx="103.85" cy="451.72" r="4.51"/><circle class="cls-4" cx="192.06" cy="451.72" r="4.51"/><ellipse class="cls-4" cx="148.05" cy="451.72" rx="2.1" ry="4.51"/><polygon class="cls-4" points="152.16 427.22 152.16 362.5 143.3 362.5 143.3 427.49 99.56 444.78 99.56 449.13 105.92 449.13 105.92 445.45 148.06 436.76 190.21 445.45 190.21 449.13 196.56 449.13 196.56 444.78 152.16 427.22"/><polygon class="cls-4" points="145.83 449.12 150.27 449.12 151.22 428.11 144.88 428.11 145.83 449.12"/><rect class="cls-4" x="136.45" y="360.03" width="22.53" height="13.38"/><rect class="cls-8" x="106.17" y="347.71" width="80.98" height="17.25" rx="5.91" ry="5.91"/></g><g id="Character_1" data-name="Character 1"><path class="cls-7" d="M273.9,402.5l6.89,10.21,8.17-.51s15.57-2.81,17.62-3.32,2.81,1.28,1.79,3.32-10.47,11.23-15.06,14-17.62,7.4-18.89,7.66-2.81-2.3-5.62-10.21a89.17,89.17,0,0,0-7.91-15.83Z" transform="translate(-27.7 -7)"/><path class="cls-7" d="M308.36,412.21c1-2,.26-3.83-1.79-3.32S289,412.21,289,412.21l-8.17.51a21.47,21.47,0,0,0,1.28,6.89s-11.49,2.81-13.28,4.08c2.81,7.91,4.34,10.47,5.62,10.21s14.3-4.85,18.89-7.66S307.34,414.25,308.36,412.21Z" transform="translate(-27.7 -7)"/><path class="cls-7" d="M308.36,412.21a3.28,3.28,0,0,0,.36-2.29c-4.66,3.93-14.44,12-18.35,13.95-3.72,1.86-13.41,5.27-18.68,7.08,1.13,2.29,2,3.12,2.72,3,1.28-.26,14.3-4.85,18.89-7.66S307.34,414.25,308.36,412.21Z" transform="translate(-27.7 -7)"/><path class="cls-9" d="M248.46,318.17s11.24,33,17.77,55.23A224.7,224.7,0,0,0,278,404.55s-5.36,3.06-8.94,4.85-9.7,4.08-9.7,4.08-4.85-7.66-10-17.62-13.79-34.21-17.87-41.62-9.7-18.64-9.7-18.64-2.55-12.77,7.15-16.08S245.66,314.6,248.46,318.17Z" transform="translate(-27.7 -7)"/><path class="cls-7" d="M209.72,312.65s4.39,2.93,4.52,3.42-.12.85-1.1,1.22-5.49,1.22-5.49,1.22Z" transform="translate(-27.7 -7)"/><path class="cls-7" d="M226.05,423.47s-1.76,10.94-3,14.94-4.48,11.26-3.45,13.07,6.48,3.66,9.26,3.89,6.34,4.77,11.51,6.65,12,1.37,11.84,0-15.31-18.06-16-22.1,1.92-16.74,1.92-16.74Z" transform="translate(-27.7 -7)"/><path class="cls-7" d="M234.32,442.62l-.42,1.15a70.33,70.33,0,0,1-11.82-2.38c-1.41,3.92-3.25,8.67-2.44,10.09,1,1.81,6.48,3.66,9.26,3.89s6.34,4.77,11.51,6.65,12,1.37,11.84,0-15.31-18.06-16-22.1A10.62,10.62,0,0,0,234.32,442.62Z" transform="translate(-27.7 -7)"/><path class="cls-7" d="M240.11,459.3c-4.09-2-7.79-5.43-13.23-7.28-3.55-1.2-6-2.18-7.3-2.72a3.56,3.56,0,0,0,.08,2.17c1,1.81,6.48,3.66,9.26,3.89s6.34,4.77,11.51,6.65c4.93,1.79,11.35,1.41,11.8.19C248.82,461.7,242.92,460.68,240.11,459.3Z" transform="translate(-27.7 -7)"/><path class="cls-9" d="M223.34,341.23s20.17,2.3,21.7,12.51-2,73.78-2,73.78a44.36,44.36,0,0,1-8.94-.51c-4.08-.77-11-2.3-11-2.3s-1-21.7-2.3-30.38-2.3-34-2.3-34-33.7-2.81-36.76-4.85S223.34,341.23,223.34,341.23Z" transform="translate(-27.7 -7)"/><path class="cls-9" d="M245.3,336.13s-45.19,17.62-56.68,21.45a54.25,54.25,0,0,1-31.91.26c-7.91-2.55-11.8-12.71-11.8-12.71s-2-2.35-1-4.65,17.36-16.85,27.32-19.4,28-1.44,28-1.44,38.92-9,44.29-8.26,9.62,19.85,10.39,22.4" transform="translate(-27.7 -7)"/><path class="cls-3" d="M156.45,347.1s3.57-14,13-19.91" transform="translate(-27.7 -7)"/><path class="cls-3" d="M154.41,337.66s3.83-5.87,8.94-7.15" transform="translate(-27.7 -7)"/><path class="cls-4" d="M182.52,232.51a10.09,10.09,0,0,1,6.48,4.8c2.51,4.18,6.69,19.85,6.69,19.85s6.69,19.43,5.43,24-6.27,11.28-6.27,11.28.42,15,1.67,18a77.09,77.09,0,0,1,2.72,9.19s-3.55,2.51-15.25,4.18-21.31,2.51-25.28,5.64-12.74,15-13.79,15.67-2.72,1.88-3.55.21-2.3-5.22-.42-12.74,5.22-37.19,6.48-51.18-1.46-28.2.21-38,16.5-15.67,19.85-16.29S182.52,232.51,182.52,232.51Z" transform="translate(-27.7 -7)"/><path class="cls-10" d="M147.26,332.55s6.38-7.4,9.45-8.68,24.51-1.28,24.51-1.28" transform="translate(-27.7 -7)"/><path class="cls-10" d="M151.86,323.1a25.24,25.24,0,0,1,6.38-2.55c2.81-.51,10.21,0,10.21,0" transform="translate(-27.7 -7)"/><path class="cls-10" d="M163.09,297.57a55.83,55.83,0,0,0,18.64-12" transform="translate(-27.7 -7)"/><path class="cls-7" d="M186.07,173.18s3.13,6.69,4.18,8.77.63,5.64,1.46,8.57,5.64,4.8,5.64,6.48-1.88,5-1.88,5-1,13-2.72,14.41-8.57,1.88-8.57,1.88l-3.55,13.58,3.55,2.09s.63,12.33,0,16.71-.21,8.57-6.48,6.89S161.83,239.2,161,237.11s2.72-11.07-1.46-24.44,5-25.49,11.07-31.13S179.59,172.14,186.07,173.18Z" transform="translate(-27.7 -7)"/><path class="cls-4" d="M186.07,173.18c-.21-3.76-.63-5.22-8.36-6.06s-24.23-1.46-30.71,10-6.48,36.56-6.48,36.56S126.74,226,125.69,233.55s4,14.62,11.91,17.13l.47.12a23.74,23.74,0,0,1,4.34-9.63c4.52-5.42,8.43-4.82,14.15-6.32s9.37-1.9,10.21-8.43,2.1-13.58,1.54-20.24c-.21-2.51,2.51-6.27,2.51-6.27s6.48,1.67,10.65-9.61S186.28,176.94,186.07,173.18Z" transform="translate(-27.7 -7)"/><path class="cls-7" d="M173.53,203.05s-2.09-9.61-7.52-5.85,2.72,14.41,4,14.62,3.34-1,3.34-1" transform="translate(-27.7 -7)"/><polygon class="cls-4" points="156.49 211.3 150.02 210.47 154.61 216.53 156.49 211.3"/><ellipse class="cls-5" cx="189.93" cy="193.13" rx="1.15" ry="2.61" transform="translate(-60.77 32.38) rotate(-10.89)"/><path class="cls-7" d="M204.25,306.78a10.7,10.7,0,0,0,1.6-.11l-.48-3c-1,.15-3.32.15-4-.85-1-1.37-.21-8.92.76-10.2.36-.42,2.11-.42,3.36-.13l.7-3c-.75-.18-4.59-1-6.38,1.13s-2.85,11.2-.94,13.93C200.17,306.43,202.62,306.78,204.25,306.78Z" transform="translate(-27.7 -7)"/><rect class="cls-7" x="204.13" y="286.75" width="18.2" height="23.71" transform="translate(398.76 590.2) rotate(180)"/><path class="cls-4" d="M151.44,236.66s-9.64-3-14,15.63c-1.47,6.2-7.41,69-6.17,69.42,4.49,1.59,51.91-13.16,51.91-13.16s14.68-1,16-1.31,3.29-2.61,3.2-3.91,0-3.9,0-3.9,2.21-2.54,1.45-4.22a4.41,4.41,0,0,0-2.32-2.23h-3l-1.79-.75s2.23-2.32,1.86-4.46-2.18-3.32-2.94-1.75-.9,2.66-2.32,4.06a31.77,31.77,0,0,0-4.44,4.86c-1,1.58-3.73,5.68-3.73,5.68l-34.17,1.86L156,263.11" transform="translate(-27.7 -7)"/><path class="cls-7" d="M203.68,295.22a4.41,4.41,0,0,0-2.32-2.23h-3l-1.79-.75s2.23-2.32,1.86-4.46-2.18-3.32-2.94-1.75-.9,2.66-2.32,4.06a31.77,31.77,0,0,0-4.44,4.86c-1,1.58-3.73,5.68-3.73,5.68l-34.17,1.86,2.26-17.16-19.18-.43c-1.75,18-3.34,36.58-2.67,36.82,4.49,1.59,51.91-13.16,51.91-13.16s14.68-1,16-1.31,3.29-2.61,3.2-3.91,0-3.9,0-3.9S204.45,296.9,203.68,295.22Z" transform="translate(-27.7 -7)"/><path class="cls-7" d="M202.15,312.38s-3.83.77-4.85,2-3.57,8.17-2.3,8.43,3.83-5.36,3.83-5.36S206,313.91,202.15,312.38Z" transform="translate(-27.7 -7)"/><path class="cls-7" d="M203.86,312.4a5.18,5.18,0,0,0-2.56.49c-1.1.61-3.42,5.86-3.78,7.32s0,2.93,1,2.56,4.39-5.62,5.37-6.23S205.57,312.42,203.86,312.4Z" transform="translate(-27.7 -7)"/><path class="cls-7" d="M206.55,312.4a1.46,1.46,0,0,0-2.69,0c-1.46,2.08-3.91,8.42-3.3,8.91s2.08-1.1,3.05-2.2S207.28,315.21,206.55,312.4Z" transform="translate(-27.7 -7)"/><path class="cls-7" d="M209.72,312.65s-2.2-1.34-3.17-.24-1.71,7-1.46,7.57,2.2-.85,2.56-1.46S209.72,312.65,209.72,312.65Z" transform="translate(-27.7 -7)"/></g></svg>